<?xml version="1.0" encoding="UTF-8" standalone="yes" ?>
<!-- shortend version of original bootstrap icons 1.11.3 https://icons.getbootstrap.com/ -->
<svg version="1.1" xmlns="http://www.w3.org/2000/svg" xmlns:xlink="http://www.w3.org/1999/xlink">
	<defs>
		<symbol class="bi bi-house" viewBox="0 0 16 16" id="house">
			<path d="M8.707 1.5a1 1 0 0 0-1.414 0L.646 8.146a.5.5 0 0 0 .708.708L2 8.207V13.5A1.5 1.5 0 0 0 3.5 15h9a1.5 1.5 0 0 0 1.5-1.5V8.207l.646.647a.5.5 0 0 0 .708-.708L13 5.793V2.5a.5.5 0 0 0-.5-.5h-1a.5.5 0 0 0-.5.5v1.293zM13 7.207V13.5a.5.5 0 0 1-.5.5h-9a.5.5 0 0 1-.5-.5V7.207l5-5z" />
		</symbol>
		<symbol class="bi bi-gitlab" viewBox="0 0 16 16" id="gitlab">
			<path d="m15.734 6.1-.022-.058L13.534.358a.57.57 0 0 0-.563-.356.6.6 0 0 0-.328.122.6.6 0 0 0-.193.294l-1.47 4.499H5.025l-1.47-4.5A.572.572 0 0 0 2.47.358L.289 6.04l-.022.057A4.044 4.044 0 0 0 1.61 10.77l.007.006.02.014 3.318 2.485 1.64 1.242 1 .755a.67.67 0 0 0 .814 0l1-.755 1.64-1.242 3.338-2.5.009-.007a4.05 4.05 0 0 0 1.34-4.668Z" />
		</symbol>
	</defs>
</svg>