<?xml version="1.0" encoding="UTF-8" standalone="no"?>
<svg
   xml:space="preserve"
   width="1063.75"
   height="1063.75"
   viewBox="0 0 1063.75 1063.75"
   version="1.1"
   id="svg539"
   sodipodi:docname="static-qr-code-967e6c0a1c9724f6befaaa2b8055c5b2.svg"
   inkscape:version="1.4 (e7c3feb1, 2024-10-09)"
   inkscape:export-filename="static-qr-code-967e6c0a1c9724f6befaaa2b8055c5b2.png"
   inkscape:export-xdpi="96"
   inkscape:export-ydpi="96"
   xmlns:inkscape="http://www.inkscape.org/namespaces/inkscape"
   xmlns:sodipodi="http://sodipodi.sourceforge.net/DTD/sodipodi-0.dtd"
   xmlns="http://www.w3.org/2000/svg"
   xmlns:svg="http://www.w3.org/2000/svg"><defs
     id="defs539" /><sodipodi:namedview
     id="namedview539"
     pagecolor="#ffffff"
     bordercolor="#000000"
     borderopacity="0.25"
     inkscape:showpageshadow="2"
     inkscape:pageopacity="0.0"
     inkscape:pagecheckerboard="0"
     inkscape:deskcolor="#d1d1d1"
     inkscape:zoom="0.94853114"
     inkscape:cx="529.23935"
     inkscape:cy="518.69673"
     inkscape:window-width="2560"
     inkscape:window-height="1387"
     inkscape:window-x="0"
     inkscape:window-y="25"
     inkscape:window-maximized="0"
     inkscape:current-layer="svg539" /><rect
     width="1063.75"
     height="1063.75"
     fill="#ffffff"
     x="0"
     y="0"
     id="rect1" /><g
     transform="scale(44.322916666667)"
     fill="#2f586e"
     id="g1"><path
       d="M21,1c1.1,0,2,0.9,2,2v18c0,1.1-0.9,2-2,2H3c-1.1,0-2-0.9-2-2V3c0-1.1,0.9-2,2-2H21 M21,0H3C1.34,0,0,1.34,0,3v18  c0,1.66,1.34,3,3,3h18c1.66,0,3-1.34,3-3V3C24,1.34,22.66,0,21,0L21,0z"
       id="path1" /></g><g
     fill="#2f586e"
     id="g539">
<g
   transform="translate(290.375,106.375) scale(3.9483333333333)"
   id="g2"><path
     d="M6,6H0V3c0-1.7,1.3-3,3-3l3,0V6z"
     id="path2" /></g>
<g
   transform="translate(313.375,106.375) scale(3.9483333333333)"
   id="g3"><path
     d="M3,6H0V0l3,0c1.7,0,3,1.3,3,3v0C6,4.7,4.7,6,3,6z"
     id="path3" /></g>
<g
   transform="translate(359.375,106.375) scale(3.9483333333333)"
   id="g4"><path
     d="M6,6H3C1.3,6,0,4.7,0,3v0c0-1.7,1.3-3,3-3h3C6,0,6,6,6,6z"
     id="path4" /></g>
<g
   transform="translate(382.375,106.375) scale(3.9483333333333)"
   id="g5"><rect
     width="6"
     height="6"
     id="rect4" /></g>
<g
   transform="translate(405.375,106.375) scale(3.9483333333333)"
   id="g6"><rect
     width="6"
     height="6"
     id="rect5" /></g>
<g
   transform="translate(428.375,106.375) scale(3.9483333333333)"
   id="g7"><path
     d="M6,6H0V0l3,0c1.7,0,3,1.3,3,3V6z"
     id="path6" /></g>
<g
   transform="translate(497.375,106.375) scale(3.9483333333333)"
   id="g8"><circle
     cx="3"
     cy="3"
     r="3"
     id="circle7" /></g>
<g
   transform="translate(543.375,106.375) scale(3.9483333333333)"
   id="g9"><circle
     cx="3"
     cy="3"
     r="3"
     id="circle8" /></g>
<g
   transform="translate(612.375,106.375) scale(3.9483333333333)"
   id="g10"><path
     d="M6,6H0V3c0-1.7,1.3-3,3-3l3,0V6z"
     id="path9" /></g>
<g
   transform="translate(635.375,106.375) scale(3.9483333333333)"
   id="g11"><rect
     width="6"
     height="6"
     id="rect10" /></g>
<g
   transform="translate(658.375,106.375) scale(3.9483333333333)"
   id="g12"><path
     d="M6,6H0V0l3,0c1.7,0,3,1.3,3,3V6z"
     id="path11" /></g>
<g
   transform="translate(750.375,106.375) scale(3.9483333333333)"
   id="g13"><path
     d="M6,6H0V3c0-1.7,1.3-3,3-3h0c1.7,0,3,1.3,3,3V6z"
     id="path12" /></g>
<g
   transform="translate(290.375,129.375) scale(3.9483333333333)"
   id="g14"><rect
     width="6"
     height="6"
     id="rect13" /></g>
<g
   transform="translate(336.375,129.375) scale(3.9483333333333)"
   id="g15"><path
     d="M6,6H0V3c0-1.7,1.3-3,3-3h0c1.7,0,3,1.3,3,3V6z"
     id="path14" /></g>
<g
   transform="translate(382.375,129.375) scale(3.9483333333333)"
   id="g16"><path
     d="M3,6L3,6C1.3,6,0,4.7,0,3V0h6v3C6,4.7,4.7,6,3,6z"
     id="path15" /></g>
<g
   transform="translate(428.375,129.375) scale(3.9483333333333)"
   id="g17"><rect
     width="6"
     height="6"
     id="rect16" /></g>
<g
   transform="translate(451.375,129.375) scale(3.9483333333333)"
   id="g18"><rect
     width="6"
     height="6"
     id="rect17" /></g>
<g
   transform="translate(474.375,129.375) scale(3.9483333333333)"
   id="g19"><path
     d="M3,6H0V0l3,0c1.7,0,3,1.3,3,3v0C6,4.7,4.7,6,3,6z"
     id="path18" /></g>
<g
   transform="translate(612.375,129.375) scale(3.9483333333333)"
   id="g20"><rect
     width="6"
     height="6"
     id="rect19" /></g>
<g
   transform="translate(658.375,129.375) scale(3.9483333333333)"
   id="g21"><rect
     width="6"
     height="6"
     id="rect20" /></g>
<g
   transform="translate(704.375,129.375) scale(3.9483333333333)"
   id="g22"><path
     d="M6,6H3C1.3,6,0,4.7,0,3v0c0-1.7,1.3-3,3-3h3C6,0,6,6,6,6z"
     id="path21" /></g>
<g
   transform="translate(727.375,129.375) scale(3.9483333333333)"
   id="g23"><rect
     width="6"
     height="6"
     id="rect22" /></g>
<g
   transform="translate(750.375,129.375) scale(3.9483333333333)"
   id="g24"><path
     d="M3,6H0V0l6,0v3C6,4.7,4.7,6,3,6z"
     id="path23" /></g>
<g
   transform="translate(290.375,152.375) scale(3.9483333333333)"
   id="g25"><path
     d="M3,6L3,6C1.3,6,0,4.7,0,3V0h6v3C6,4.7,4.7,6,3,6z"
     id="path24" /></g>
<g
   transform="translate(336.375,152.375) scale(3.9483333333333)"
   id="g26"><path
     d="M3,6L3,6C1.3,6,0,4.7,0,3V0h6v3C6,4.7,4.7,6,3,6z"
     id="path25" /></g>
<g
   transform="translate(405.375,152.375) scale(3.9483333333333)"
   id="g27"><path
     d="M6,6H3C1.3,6,0,4.7,0,3v0c0-1.7,1.3-3,3-3h3C6,0,6,6,6,6z"
     id="path26" /></g>
<g
   transform="translate(428.375,152.375) scale(3.9483333333333)"
   id="g28"><rect
     width="6"
     height="6"
     id="rect27" /></g>
<g
   transform="translate(497.375,152.375) scale(3.9483333333333)"
   id="g29"><path
     d="M6,6H0V3c0-1.7,1.3-3,3-3l3,0V6z"
     id="path28" /></g>
<g
   transform="translate(520.375,152.375) scale(3.9483333333333)"
   id="g30"><path
     d="M3,6H0V0l3,0c1.7,0,3,1.3,3,3v0C6,4.7,4.7,6,3,6z"
     id="path29" /></g>
<g
   transform="translate(566.375,152.375) scale(3.9483333333333)"
   id="g31"><path
     d="M6,6H3C1.3,6,0,4.7,0,3v0c0-1.7,1.3-3,3-3h3C6,0,6,6,6,6z"
     id="path30" /></g>
<g
   transform="translate(589.375,152.375) scale(3.9483333333333)"
   id="g32"><rect
     width="6"
     height="6"
     id="rect31" /></g>
<g
   transform="translate(612.375,152.375) scale(3.9483333333333)"
   id="g33"><rect
     width="6"
     height="6"
     id="rect32" /></g>
<g
   transform="translate(635.375,152.375) scale(3.9483333333333)"
   id="g34"><rect
     width="6"
     height="6"
     id="rect33" /></g>
<g
   transform="translate(658.375,152.375) scale(3.9483333333333)"
   id="g35"><rect
     width="6"
     height="6"
     id="rect34" /></g>
<g
   transform="translate(727.375,152.375) scale(3.9483333333333)"
   id="g36"><path
     d="M3,6L3,6C1.3,6,0,4.7,0,3V0h6v3C6,4.7,4.7,6,3,6z"
     id="path35" /></g>
<g
   transform="translate(359.375,175.375) scale(3.9483333333333)"
   id="g37"><path
     d="M6,6H3C1.3,6,0,4.7,0,3v0c0-1.7,1.3-3,3-3h3C6,0,6,6,6,6z"
     id="path36" /></g>
<g
   transform="translate(382.375,175.375) scale(3.9483333333333)"
   id="g38"><path
     d="M6,6H0V0l3,0c1.7,0,3,1.3,3,3V6z"
     id="path37" /></g>
<g
   transform="translate(428.375,175.375) scale(3.9483333333333)"
   id="g39"><path
     d="M6,6H3C1.3,6,0,4.7,0,3V0l6,0V6z"
     id="path38" /></g>
<g
   transform="translate(451.375,175.375) scale(3.9483333333333)"
   id="g40"><rect
     width="6"
     height="6"
     id="rect39" /></g>
<g
   transform="translate(474.375,175.375) scale(3.9483333333333)"
   id="g41"><rect
     width="6"
     height="6"
     id="rect40" /></g>
<g
   transform="translate(497.375,175.375) scale(3.9483333333333)"
   id="g42"><path
     d="M3,6H0V0l6,0v3C6,4.7,4.7,6,3,6z"
     id="path41" /></g>
<g
   transform="translate(543.375,175.375) scale(3.9483333333333)"
   id="g43"><circle
     cx="3"
     cy="3"
     r="3"
     id="circle42" /></g>
<g
   transform="translate(589.375,175.375) scale(3.9483333333333)"
   id="g44"><rect
     width="6"
     height="6"
     id="rect43" /></g>
<g
   transform="translate(612.375,175.375) scale(3.9483333333333)"
   id="g45"><rect
     width="6"
     height="6"
     id="rect44" /></g>
<g
   transform="translate(635.375,175.375) scale(3.9483333333333)"
   id="g46"><rect
     width="6"
     height="6"
     id="rect45" /></g>
<g
   transform="translate(658.375,175.375) scale(3.9483333333333)"
   id="g47"><rect
     width="6"
     height="6"
     id="rect46" /></g>
<g
   transform="translate(681.375,175.375) scale(3.9483333333333)"
   id="g48"><rect
     width="6"
     height="6"
     id="rect47" /></g>
<g
   transform="translate(704.375,175.375) scale(3.9483333333333)"
   id="g49"><path
     d="M3,6H0V0l3,0c1.7,0,3,1.3,3,3v0C6,4.7,4.7,6,3,6z"
     id="path48" /></g>
<g
   transform="translate(313.375,198.375) scale(3.9483333333333)"
   id="g50"><path
     d="M6,6H3C1.3,6,0,4.7,0,3v0c0-1.7,1.3-3,3-3h3C6,0,6,6,6,6z"
     id="path49" /></g>
<g
   transform="translate(336.375,198.375) scale(3.9483333333333)"
   id="g51"><path
     d="M6,6H0V0l3,0c1.7,0,3,1.3,3,3V6z"
     id="path50" /></g>
<g
   transform="translate(382.375,198.375) scale(3.9483333333333)"
   id="g52"><rect
     width="6"
     height="6"
     id="rect51" /></g>
<g
   transform="translate(405.375,198.375) scale(3.9483333333333)"
   id="g53"><path
     d="M6,6H0V0l3,0c1.7,0,3,1.3,3,3V6z"
     id="path52" /></g>
<g
   transform="translate(474.375,198.375) scale(3.9483333333333)"
   id="g54"><path
     d="M3,6L3,6C1.3,6,0,4.7,0,3V0h6v3C6,4.7,4.7,6,3,6z"
     id="path53" /></g>
<g
   transform="translate(520.375,198.375) scale(3.9483333333333)"
   id="g55"><circle
     cx="3"
     cy="3"
     r="3"
     id="circle54" /></g>
<g
   transform="translate(589.375,198.375) scale(3.9483333333333)"
   id="g56"><path
     d="M3,6L3,6C1.3,6,0,4.7,0,3V0h6v3C6,4.7,4.7,6,3,6z"
     id="path55" /></g>
<g
   transform="translate(658.375,198.375) scale(3.9483333333333)"
   id="g57"><rect
     width="6"
     height="6"
     id="rect56" /></g>
<g
   transform="translate(681.375,198.375) scale(3.9483333333333)"
   id="g58"><rect
     width="6"
     height="6"
     id="rect57" /></g>
<g
   transform="translate(290.375,221.375) scale(3.9483333333333)"
   id="g59"><path
     d="M6,6H0V3c0-1.7,1.3-3,3-3h0c1.7,0,3,1.3,3,3V6z"
     id="path58" /></g>
<g
   transform="translate(336.375,221.375) scale(3.9483333333333)"
   id="g60"><rect
     width="6"
     height="6"
     id="rect59" /></g>
<g
   transform="translate(382.375,221.375) scale(3.9483333333333)"
   id="g61"><rect
     width="6"
     height="6"
     id="rect60" /></g>
<g
   transform="translate(405.375,221.375) scale(3.9483333333333)"
   id="g62"><rect
     width="6"
     height="6"
     id="rect61" /></g>
<g
   transform="translate(428.375,221.375) scale(3.9483333333333)"
   id="g63"><rect
     width="6"
     height="6"
     id="rect62" /></g>
<g
   transform="translate(451.375,221.375) scale(3.9483333333333)"
   id="g64"><path
     d="M3,6H0V0l3,0c1.7,0,3,1.3,3,3v0C6,4.7,4.7,6,3,6z"
     id="path63" /></g>
<g
   transform="translate(497.375,221.375) scale(3.9483333333333)"
   id="g65"><circle
     cx="3"
     cy="3"
     r="3"
     id="circle64" /></g>
<g
   transform="translate(612.375,221.375) scale(3.9483333333333)"
   id="g66"><path
     d="M6,6H0V3c0-1.7,1.3-3,3-3h0c1.7,0,3,1.3,3,3V6z"
     id="path65" /></g>
<g
   transform="translate(658.375,221.375) scale(3.9483333333333)"
   id="g67"><rect
     width="6"
     height="6"
     id="rect66" /></g>
<g
   transform="translate(681.375,221.375) scale(3.9483333333333)"
   id="g68"><rect
     width="6"
     height="6"
     id="rect67" /></g>
<g
   transform="translate(704.375,221.375) scale(3.9483333333333)"
   id="g69"><rect
     width="6"
     height="6"
     id="rect68" /></g>
<g
   transform="translate(727.375,221.375) scale(3.9483333333333)"
   id="g70"><rect
     width="6"
     height="6"
     id="rect69" /></g>
<g
   transform="translate(750.375,221.375) scale(3.9483333333333)"
   id="g71"><path
     d="M6,6H0V0l3,0c1.7,0,3,1.3,3,3V6z"
     id="path70" /></g>
<g
   transform="translate(290.375,244.375) scale(3.9483333333333)"
   id="g72"><rect
     width="6"
     height="6"
     id="rect71" /></g>
<g
   transform="translate(336.375,244.375) scale(3.9483333333333)"
   id="g73"><path
     d="M3,6L3,6C1.3,6,0,4.7,0,3V0h6v3C6,4.7,4.7,6,3,6z"
     id="path72" /></g>
<g
   transform="translate(382.375,244.375) scale(3.9483333333333)"
   id="g74"><rect
     width="6"
     height="6"
     id="rect73" /></g>
<g
   transform="translate(428.375,244.375) scale(3.9483333333333)"
   id="g75"><path
     d="M3,6L3,6C1.3,6,0,4.7,0,3V0h6v3C6,4.7,4.7,6,3,6z"
     id="path74" /></g>
<g
   transform="translate(474.375,244.375) scale(3.9483333333333)"
   id="g76"><circle
     cx="3"
     cy="3"
     r="3"
     id="circle75" /></g>
<g
   transform="translate(520.375,244.375) scale(3.9483333333333)"
   id="g77"><path
     d="M6,6H0V3c0-1.7,1.3-3,3-3h0c1.7,0,3,1.3,3,3V6z"
     id="path76" /></g>
<g
   transform="translate(566.375,244.375) scale(3.9483333333333)"
   id="g78"><circle
     cx="3"
     cy="3"
     r="3"
     id="circle77" /></g>
<g
   transform="translate(612.375,244.375) scale(3.9483333333333)"
   id="g79"><rect
     width="6"
     height="6"
     id="rect78" /></g>
<g
   transform="translate(658.375,244.375) scale(3.9483333333333)"
   id="g80"><path
     d="M3,6L3,6C1.3,6,0,4.7,0,3V0h6v3C6,4.7,4.7,6,3,6z"
     id="path79" /></g>
<g
   transform="translate(704.375,244.375) scale(3.9483333333333)"
   id="g81"><path
     d="M3,6L3,6C1.3,6,0,4.7,0,3V0h6v3C6,4.7,4.7,6,3,6z"
     id="path80" /></g>
<g
   transform="translate(750.375,244.375) scale(3.9483333333333)"
   id="g82"><rect
     width="6"
     height="6"
     id="rect81" /></g>
<g
   transform="translate(290.375,267.375) scale(3.9483333333333)"
   id="g83"><rect
     width="6"
     height="6"
     id="rect82" /></g>
<g
   transform="translate(313.375,267.375) scale(3.9483333333333)"
   id="g84"><path
     d="M3,6H0V0l3,0c1.7,0,3,1.3,3,3v0C6,4.7,4.7,6,3,6z"
     id="path83" /></g>
<g
   transform="translate(382.375,267.375) scale(3.9483333333333)"
   id="g85"><rect
     width="6"
     height="6"
     id="rect84" /></g>
<g
   transform="translate(451.375,267.375) scale(3.9483333333333)"
   id="g86"><circle
     cx="3"
     cy="3"
     r="3"
     id="circle85" /></g>
<g
   transform="translate(497.375,267.375) scale(3.9483333333333)"
   id="g87"><path
     d="M6,6H0V3c0-1.7,1.3-3,3-3l3,0V6z"
     id="path86" /></g>
<g
   transform="translate(520.375,267.375) scale(3.9483333333333)"
   id="g88"><path
     d="M3,6H0V0l6,0v3C6,4.7,4.7,6,3,6z"
     id="path87" /></g>
<g
   transform="translate(589.375,267.375) scale(3.9483333333333)"
   id="g89"><path
     d="M6,6H3C1.3,6,0,4.7,0,3v0c0-1.7,1.3-3,3-3h3C6,0,6,6,6,6z"
     id="path88" /></g>
<g
   transform="translate(612.375,267.375) scale(3.9483333333333)"
   id="g90"><path
     d="M3,6H0V0l6,0v3C6,4.7,4.7,6,3,6z"
     id="path89" /></g>
<g
   transform="translate(681.375,267.375) scale(3.9483333333333)"
   id="g91"><circle
     cx="3"
     cy="3"
     r="3"
     id="circle90" /></g>
<g
   transform="translate(750.375,267.375) scale(3.9483333333333)"
   id="g92"><path
     d="M3,6L3,6C1.3,6,0,4.7,0,3V0h6v3C6,4.7,4.7,6,3,6z"
     id="path91" /></g>
<g
   transform="translate(152.375,290.375) scale(3.9483333333333)"
   id="g93"><path
     d="M6,6H3C1.3,6,0,4.7,0,3v0c0-1.7,1.3-3,3-3h3C6,0,6,6,6,6z"
     id="path92" /></g>
<g
   transform="translate(175.375,290.375) scale(3.9483333333333)"
   id="g94"><rect
     width="6"
     height="6"
     id="rect93" /></g>
<g
   transform="translate(198.375,290.375) scale(3.9483333333333)"
   id="g95"><path
     d="M3,6H0V0l3,0c1.7,0,3,1.3,3,3v0C6,4.7,4.7,6,3,6z"
     id="path94" /></g>
<g
   transform="translate(244.375,290.375) scale(3.9483333333333)"
   id="g96"><circle
     cx="3"
     cy="3"
     r="3"
     id="circle95" /></g>
<g
   transform="translate(290.375,290.375) scale(3.9483333333333)"
   id="g97"><rect
     width="6"
     height="6"
     id="rect96" /></g>
<g
   transform="translate(382.375,290.375) scale(3.9483333333333)"
   id="g98"><rect
     width="6"
     height="6"
     id="rect97" /></g>
<g
   transform="translate(405.375,290.375) scale(3.9483333333333)"
   id="g99"><path
     d="M3,6H0V0l3,0c1.7,0,3,1.3,3,3v0C6,4.7,4.7,6,3,6z"
     id="path98" /></g>
<g
   transform="translate(497.375,290.375) scale(3.9483333333333)"
   id="g100"><path
     d="M3,6L3,6C1.3,6,0,4.7,0,3V0h6v3C6,4.7,4.7,6,3,6z"
     id="path99" /></g>
<g
   transform="translate(566.375,290.375) scale(3.9483333333333)"
   id="g101"><path
     d="M6,6H0V3c0-1.7,1.3-3,3-3h0c1.7,0,3,1.3,3,3V6z"
     id="path100" /></g>
<g
   transform="translate(704.375,290.375) scale(3.9483333333333)"
   id="g102"><circle
     cx="3"
     cy="3"
     r="3"
     id="circle101" /></g>
<g
   transform="translate(773.375,290.375) scale(3.9483333333333)"
   id="g103"><path
     d="M6,6H3C1.3,6,0,4.7,0,3v0c0-1.7,1.3-3,3-3h3C6,0,6,6,6,6z"
     id="path102" /></g>
<g
   transform="translate(796.375,290.375) scale(3.9483333333333)"
   id="g104"><rect
     width="6"
     height="6"
     id="rect103" /></g>
<g
   transform="translate(819.375,290.375) scale(3.9483333333333)"
   id="g105"><path
     d="M6,6H0V0l3,0c1.7,0,3,1.3,3,3V6z"
     id="path104" /></g>
<g
   transform="translate(888.375,290.375) scale(3.9483333333333)"
   id="g106"><path
     d="M6,6H3C1.3,6,0,4.7,0,3v0c0-1.7,1.3-3,3-3h3C6,0,6,6,6,6z"
     id="path105" /></g>
<g
   transform="translate(911.375,290.375) scale(3.9483333333333)"
   id="g107"><rect
     width="6"
     height="6"
     id="rect106" /></g>
<g
   transform="translate(934.375,290.375) scale(3.9483333333333)"
   id="g108"><path
     d="M3,6H0V0l3,0c1.7,0,3,1.3,3,3v0C6,4.7,4.7,6,3,6z"
     id="path107" /></g>
<g
   transform="translate(106.375,313.375) scale(3.9483333333333)"
   id="g109"><path
     d="M6,6H3C1.3,6,0,4.7,0,3v0c0-1.7,1.3-3,3-3h3C6,0,6,6,6,6z"
     id="path108" /></g>
<g
   transform="translate(129.375,313.375) scale(3.9483333333333)"
   id="g110"><path
     d="M3,6H0V0l3,0c1.7,0,3,1.3,3,3v0C6,4.7,4.7,6,3,6z"
     id="path109" /></g>
<g
   transform="translate(290.375,313.375) scale(3.9483333333333)"
   id="g111"><path
     d="M6,6H3C1.3,6,0,4.7,0,3V0l6,0V6z"
     id="path110" /></g>
<g
   transform="translate(313.375,313.375) scale(3.9483333333333)"
   id="g112"><rect
     width="6"
     height="6"
     id="rect111" /></g>
<g
   transform="translate(336.375,313.375) scale(3.9483333333333)"
   id="g113"><rect
     width="6"
     height="6"
     id="rect112" /></g>
<g
   transform="translate(359.375,313.375) scale(3.9483333333333)"
   id="g114"><rect
     width="6"
     height="6"
     id="rect113" /></g>
<g
   transform="translate(382.375,313.375) scale(3.9483333333333)"
   id="g115"><rect
     width="6"
     height="6"
     id="rect114" /></g>
<g
   transform="translate(451.375,313.375) scale(3.9483333333333)"
   id="g116"><path
     d="M6,6H0V3c0-1.7,1.3-3,3-3l3,0V6z"
     id="path115" /></g>
<g
   transform="translate(474.375,313.375) scale(3.9483333333333)"
   id="g117"><path
     d="M3,6H0V0l3,0c1.7,0,3,1.3,3,3v0C6,4.7,4.7,6,3,6z"
     id="path116" /></g>
<g
   transform="translate(520.375,313.375) scale(3.9483333333333)"
   id="g118"><path
     d="M6,6H0V3c0-1.7,1.3-3,3-3l3,0V6z"
     id="path117" /></g>
<g
   transform="translate(543.375,313.375) scale(3.9483333333333)"
   id="g119"><rect
     width="6"
     height="6"
     id="rect118" /></g>
<g
   transform="translate(566.375,313.375) scale(3.9483333333333)"
   id="g120"><rect
     width="6"
     height="6"
     id="rect119" /></g>
<g
   transform="translate(589.375,313.375) scale(3.9483333333333)"
   id="g121"><path
     d="M6,6H0V0l3,0c1.7,0,3,1.3,3,3V6z"
     id="path120" /></g>
<g
   transform="translate(635.375,313.375) scale(3.9483333333333)"
   id="g122"><path
     d="M6,6H0V3c0-1.7,1.3-3,3-3h0c1.7,0,3,1.3,3,3V6z"
     id="path121" /></g>
<g
   transform="translate(681.375,313.375) scale(3.9483333333333)"
   id="g123"><path
     d="M6,6H0V3c0-1.7,1.3-3,3-3h0c1.7,0,3,1.3,3,3V6z"
     id="path122" /></g>
<g
   transform="translate(727.375,313.375) scale(3.9483333333333)"
   id="g124"><path
     d="M6,6H0V3c0-1.7,1.3-3,3-3h0c1.7,0,3,1.3,3,3V6z"
     id="path123" /></g>
<g
   transform="translate(819.375,313.375) scale(3.9483333333333)"
   id="g125"><path
     d="M3,6L3,6C1.3,6,0,4.7,0,3V0h6v3C6,4.7,4.7,6,3,6z"
     id="path124" /></g>
<g
   transform="translate(865.375,313.375) scale(3.9483333333333)"
   id="g126"><circle
     cx="3"
     cy="3"
     r="3"
     id="circle125" /></g>
<g
   transform="translate(175.375,336.375) scale(3.9483333333333)"
   id="g127"><path
     d="M6,6H3C1.3,6,0,4.7,0,3v0c0-1.7,1.3-3,3-3h3C6,0,6,6,6,6z"
     id="path126" /></g>
<g
   transform="translate(198.375,336.375) scale(3.9483333333333)"
   id="g128"><rect
     width="6"
     height="6"
     id="rect127" /></g>
<g
   transform="translate(221.375,336.375) scale(3.9483333333333)"
   id="g129"><rect
     width="6"
     height="6"
     id="rect128" /></g>
<g
   transform="translate(244.375,336.375) scale(3.9483333333333)"
   id="g130"><path
     d="M3,6H0V0l3,0c1.7,0,3,1.3,3,3v0C6,4.7,4.7,6,3,6z"
     id="path129" /></g>
<g
   transform="translate(313.375,336.375) scale(3.9483333333333)"
   id="g131"><rect
     width="6"
     height="6"
     id="rect130" /></g>
<g
   transform="translate(382.375,336.375) scale(3.9483333333333)"
   id="g132"><rect
     width="6"
     height="6"
     id="rect131" /></g>
<g
   transform="translate(405.375,336.375) scale(3.9483333333333)"
   id="g133"><path
     d="M6,6H0V0l3,0c1.7,0,3,1.3,3,3V6z"
     id="path132" /></g>
<g
   transform="translate(451.375,336.375) scale(3.9483333333333)"
   id="g134"><path
     d="M3,6L3,6C1.3,6,0,4.7,0,3V0h6v3C6,4.7,4.7,6,3,6z"
     id="path133" /></g>
<g
   transform="translate(497.375,336.375) scale(3.9483333333333)"
   id="g135"><path
     d="M6,6H0V3c0-1.7,1.3-3,3-3l3,0V6z"
     id="path134" /></g>
<g
   transform="translate(520.375,336.375) scale(3.9483333333333)"
   id="g136"><rect
     width="6"
     height="6"
     id="rect135" /></g>
<g
   transform="translate(543.375,336.375) scale(3.9483333333333)"
   id="g137"><path
     d="M3,6H0V0l6,0v3C6,4.7,4.7,6,3,6z"
     id="path136" /></g>
<g
   transform="translate(589.375,336.375) scale(3.9483333333333)"
   id="g138"><path
     d="M3,6L3,6C1.3,6,0,4.7,0,3V0h6v3C6,4.7,4.7,6,3,6z"
     id="path137" /></g>
<g
   transform="translate(635.375,336.375) scale(3.9483333333333)"
   id="g139"><rect
     width="6"
     height="6"
     id="rect138" /></g>
<g
   transform="translate(658.375,336.375) scale(3.9483333333333)"
   id="g140"><rect
     width="6"
     height="6"
     id="rect139" /></g>
<g
   transform="translate(681.375,336.375) scale(3.9483333333333)"
   id="g141"><rect
     width="6"
     height="6"
     id="rect140" /></g>
<g
   transform="translate(704.375,336.375) scale(3.9483333333333)"
   id="g142"><rect
     width="6"
     height="6"
     id="rect141" /></g>
<g
   transform="translate(727.375,336.375) scale(3.9483333333333)"
   id="g143"><rect
     width="6"
     height="6"
     id="rect142" /></g>
<g
   transform="translate(750.375,336.375) scale(3.9483333333333)"
   id="g144"><path
     d="M6,6H0V0l3,0c1.7,0,3,1.3,3,3V6z"
     id="path143" /></g>
<g
   transform="translate(796.375,336.375) scale(3.9483333333333)"
   id="g145"><path
     d="M6,6H0V3c0-1.7,1.3-3,3-3h0c1.7,0,3,1.3,3,3V6z"
     id="path144" /></g>
<g
   transform="translate(842.375,336.375) scale(3.9483333333333)"
   id="g146"><path
     d="M6,6H0V3c0-1.7,1.3-3,3-3h0c1.7,0,3,1.3,3,3V6z"
     id="path145" /></g>
<g
   transform="translate(888.375,336.375) scale(3.9483333333333)"
   id="g147"><path
     d="M6,6H3C1.3,6,0,4.7,0,3v0c0-1.7,1.3-3,3-3h3C6,0,6,6,6,6z"
     id="path146" /></g>
<g
   transform="translate(911.375,336.375) scale(3.9483333333333)"
   id="g148"><rect
     width="6"
     height="6"
     id="rect147" /></g>
<g
   transform="translate(934.375,336.375) scale(3.9483333333333)"
   id="g149"><path
     d="M6,6H0V0l3,0c1.7,0,3,1.3,3,3V6z"
     id="path148" /></g>
<g
   transform="translate(106.375,359.375) scale(3.9483333333333)"
   id="g150"><path
     d="M6,6H0V3c0-1.7,1.3-3,3-3l3,0V6z"
     id="path149" /></g>
<g
   transform="translate(129.375,359.375) scale(3.9483333333333)"
   id="g151"><rect
     width="6"
     height="6"
     id="rect150" /></g>
<g
   transform="translate(152.375,359.375) scale(3.9483333333333)"
   id="g152"><path
     d="M6,6H0V0l3,0c1.7,0,3,1.3,3,3V6z"
     id="path151" /></g>
<g
   transform="translate(267.375,359.375) scale(3.9483333333333)"
   id="g153"><circle
     cx="3"
     cy="3"
     r="3"
     id="circle152" /></g>
<g
   transform="translate(313.375,359.375) scale(3.9483333333333)"
   id="g154"><rect
     width="6"
     height="6"
     id="rect153" /></g>
<g
   transform="translate(359.375,359.375) scale(3.9483333333333)"
   id="g155"><path
     d="M6,6H0V3c0-1.7,1.3-3,3-3l3,0V6z"
     id="path154" /></g>
<g
   transform="translate(382.375,359.375) scale(3.9483333333333)"
   id="g156"><rect
     width="6"
     height="6"
     id="rect155" /></g>
<g
   transform="translate(405.375,359.375) scale(3.9483333333333)"
   id="g157"><path
     d="M3,6H0V0l6,0v3C6,4.7,4.7,6,3,6z"
     id="path156" /></g>
<g
   transform="translate(497.375,359.375) scale(3.9483333333333)"
   id="g158"><rect
     width="6"
     height="6"
     id="rect157" /></g>
<g
   transform="translate(520.375,359.375) scale(3.9483333333333)"
   id="g159"><rect
     width="6"
     height="6"
     id="rect158" /></g>
<g
   transform="translate(566.375,359.375) scale(3.9483333333333)"
   id="g160"><path
     d="M6,6H0V3c0-1.7,1.3-3,3-3h0c1.7,0,3,1.3,3,3V6z"
     id="path159" /></g>
<g
   transform="translate(612.375,359.375) scale(3.9483333333333)"
   id="g161"><path
     d="M6,6H3C1.3,6,0,4.7,0,3v0c0-1.7,1.3-3,3-3h3C6,0,6,6,6,6z"
     id="path160" /></g>
<g
   transform="translate(635.375,359.375) scale(3.9483333333333)"
   id="g162"><rect
     width="6"
     height="6"
     id="rect161" /></g>
<g
   transform="translate(658.375,359.375) scale(3.9483333333333)"
   id="g163"><rect
     width="6"
     height="6"
     id="rect162" /></g>
<g
   transform="translate(704.375,359.375) scale(3.9483333333333)"
   id="g164"><rect
     width="6"
     height="6"
     id="rect163" /></g>
<g
   transform="translate(750.375,359.375) scale(3.9483333333333)"
   id="g165"><path
     d="M3,6L3,6C1.3,6,0,4.7,0,3V0h6v3C6,4.7,4.7,6,3,6z"
     id="path164" /></g>
<g
   transform="translate(796.375,359.375) scale(3.9483333333333)"
   id="g166"><rect
     width="6"
     height="6"
     id="rect165" /></g>
<g
   transform="translate(819.375,359.375) scale(3.9483333333333)"
   id="g167"><rect
     width="6"
     height="6"
     id="rect166" /></g>
<g
   transform="translate(842.375,359.375) scale(3.9483333333333)"
   id="g168"><rect
     width="6"
     height="6"
     id="rect167" /></g>
<g
   transform="translate(934.375,359.375) scale(3.9483333333333)"
   id="g169"><rect
     width="6"
     height="6"
     id="rect168" /></g>
<g
   transform="translate(106.375,382.375) scale(3.9483333333333)"
   id="g170"><path
     d="M3,6L3,6C1.3,6,0,4.7,0,3V0h6v3C6,4.7,4.7,6,3,6z"
     id="path169" /></g>
<g
   transform="translate(152.375,382.375) scale(3.9483333333333)"
   id="g171"><path
     d="M3,6L3,6C1.3,6,0,4.7,0,3V0h6v3C6,4.7,4.7,6,3,6z"
     id="path170" /></g>
<g
   transform="translate(244.375,382.375) scale(3.9483333333333)"
   id="g172"><circle
     cx="3"
     cy="3"
     r="3"
     id="circle171" /></g>
<g
   transform="translate(313.375,382.375) scale(3.9483333333333)"
   id="g173"><path
     d="M3,6L3,6C1.3,6,0,4.7,0,3V0h6v3C6,4.7,4.7,6,3,6z"
     id="path172" /></g>
<g
   transform="translate(359.375,382.375) scale(3.9483333333333)"
   id="g174"><rect
     width="6"
     height="6"
     id="rect173" /></g>
<g
   transform="translate(474.375,382.375) scale(3.9483333333333)"
   id="g175"><path
     d="M6,6H3C1.3,6,0,4.7,0,3v0c0-1.7,1.3-3,3-3h3C6,0,6,6,6,6z"
     id="path174" /></g>
<g
   transform="translate(497.375,382.375) scale(3.9483333333333)"
   id="g176"><rect
     width="6"
     height="6"
     id="rect175" /></g>
<g
   transform="translate(520.375,382.375) scale(3.9483333333333)"
   id="g177"><path
     d="M3,6H0V0l6,0v3C6,4.7,4.7,6,3,6z"
     id="path176" /></g>
<g
   transform="translate(566.375,382.375) scale(3.9483333333333)"
   id="g178"><path
     d="M6,6H3C1.3,6,0,4.7,0,3V0l6,0V6z"
     id="path177" /></g>
<g
   transform="translate(589.375,382.375) scale(3.9483333333333)"
   id="g179"><path
     d="M3,6H0V0l3,0c1.7,0,3,1.3,3,3v0C6,4.7,4.7,6,3,6z"
     id="path178" /></g>
<g
   transform="translate(658.375,382.375) scale(3.9483333333333)"
   id="g180"><path
     d="M6,6H3C1.3,6,0,4.7,0,3V0l6,0V6z"
     id="path179" /></g>
<g
   transform="translate(681.375,382.375) scale(3.9483333333333)"
   id="g181"><rect
     width="6"
     height="6"
     id="rect180" /></g>
<g
   transform="translate(704.375,382.375) scale(3.9483333333333)"
   id="g182"><path
     d="M3,6H0V0l6,0v3C6,4.7,4.7,6,3,6z"
     id="path181" /></g>
<g
   transform="translate(773.375,382.375) scale(3.9483333333333)"
   id="g183"><path
     d="M6,6H0V3c0-1.7,1.3-3,3-3l3,0V6z"
     id="path182" /></g>
<g
   transform="translate(796.375,382.375) scale(3.9483333333333)"
   id="g184"><path
     d="M3,6H0V0l6,0v3C6,4.7,4.7,6,3,6z"
     id="path183" /></g>
<g
   transform="translate(842.375,382.375) scale(3.9483333333333)"
   id="g185"><path
     d="M6,6H3C1.3,6,0,4.7,0,3V0l6,0V6z"
     id="path184" /></g>
<g
   transform="translate(865.375,382.375) scale(3.9483333333333)"
   id="g186"><rect
     width="6"
     height="6"
     id="rect185" /></g>
<g
   transform="translate(888.375,382.375) scale(3.9483333333333)"
   id="g187"><rect
     width="6"
     height="6"
     id="rect186" /></g>
<g
   transform="translate(911.375,382.375) scale(3.9483333333333)"
   id="g188"><rect
     width="6"
     height="6"
     id="rect187" /></g>
<g
   transform="translate(934.375,382.375) scale(3.9483333333333)"
   id="g189"><path
     d="M3,6H0V0l6,0v3C6,4.7,4.7,6,3,6z"
     id="path188" /></g>
<g
   transform="translate(129.375,405.375) scale(3.9483333333333)"
   id="g190"><circle
     cx="3"
     cy="3"
     r="3"
     id="circle189" /></g>
<g
   transform="translate(267.375,405.375) scale(3.9483333333333)"
   id="g191"><circle
     cx="3"
     cy="3"
     r="3"
     id="circle190" /></g>
<g
   transform="translate(359.375,405.375) scale(3.9483333333333)"
   id="g192"><path
     d="M6,6H3C1.3,6,0,4.7,0,3V0l6,0V6z"
     id="path191" /></g>
<g
   transform="translate(382.375,405.375) scale(3.9483333333333)"
   id="g193"><path
     d="M6,6H0V0l3,0c1.7,0,3,1.3,3,3V6z"
     id="path192" /></g>
<g
   transform="translate(681.375,405.375) scale(3.9483333333333)"
   id="g194"><rect
     width="6"
     height="6"
     id="rect193" /></g>
<g
   transform="translate(750.375,405.375) scale(3.9483333333333)"
   id="g195"><path
     d="M6,6H3C1.3,6,0,4.7,0,3v0c0-1.7,1.3-3,3-3h3C6,0,6,6,6,6z"
     id="path194" /></g>
<g
   transform="translate(773.375,405.375) scale(3.9483333333333)"
   id="g196"><rect
     width="6"
     height="6"
     id="rect195" /></g>
<g
   transform="translate(819.375,405.375) scale(3.9483333333333)"
   id="g197"><circle
     cx="3"
     cy="3"
     r="3"
     id="circle196" /></g>
<g
   transform="translate(865.375,405.375) scale(3.9483333333333)"
   id="g198"><rect
     width="6"
     height="6"
     id="rect197" /></g>
<g
   transform="translate(888.375,405.375) scale(3.9483333333333)"
   id="g199"><path
     d="M3,6H0V0l6,0v3C6,4.7,4.7,6,3,6z"
     id="path198" /></g>
<g
   transform="translate(152.375,428.375) scale(3.9483333333333)"
   id="g200"><path
     d="M6,6H0V3c0-1.7,1.3-3,3-3h0c1.7,0,3,1.3,3,3V6z"
     id="path199" /></g>
<g
   transform="translate(198.375,428.375) scale(3.9483333333333)"
   id="g201"><circle
     cx="3"
     cy="3"
     r="3"
     id="circle200" /></g>
<g
   transform="translate(244.375,428.375) scale(3.9483333333333)"
   id="g202"><circle
     cx="3"
     cy="3"
     r="3"
     id="circle201" /></g>
<g
   transform="translate(336.375,428.375) scale(3.9483333333333)"
   id="g203"><circle
     cx="3"
     cy="3"
     r="3"
     id="circle202" /></g>
<g
   transform="translate(382.375,428.375) scale(3.9483333333333)"
   id="g204"><rect
     width="6"
     height="6"
     id="rect203" /></g>
<g
   transform="translate(658.375,428.375) scale(3.9483333333333)"
   id="g205"><path
     d="M6,6H0V3c0-1.7,1.3-3,3-3l3,0V6z"
     id="path204" /></g>
<g
   transform="translate(681.375,428.375) scale(3.9483333333333)"
   id="g206"><path
     d="M3,6H0V0l6,0v3C6,4.7,4.7,6,3,6z"
     id="path205" /></g>
<g
   transform="translate(727.375,428.375) scale(3.9483333333333)"
   id="g207"><circle
     cx="3"
     cy="3"
     r="3"
     id="circle206" /></g>
<g
   transform="translate(773.375,428.375) scale(3.9483333333333)"
   id="g208"><path
     d="M6,6H3C1.3,6,0,4.7,0,3V0l6,0V6z"
     id="path207" /></g>
<g
   transform="translate(796.375,428.375) scale(3.9483333333333)"
   id="g209"><path
     d="M6,6H0V0l3,0c1.7,0,3,1.3,3,3V6z"
     id="path208" /></g>
<g
   transform="translate(842.375,428.375) scale(3.9483333333333)"
   id="g210"><path
     d="M6,6H3C1.3,6,0,4.7,0,3v0c0-1.7,1.3-3,3-3h3C6,0,6,6,6,6z"
     id="path209" /></g>
<g
   transform="translate(865.375,428.375) scale(3.9483333333333)"
   id="g211"><path
     d="M3,6H0V0l6,0v3C6,4.7,4.7,6,3,6z"
     id="path210" /></g>
<g
   transform="translate(911.375,428.375) scale(3.9483333333333)"
   id="g212"><path
     d="M6,6H3C1.3,6,0,4.7,0,3v0c0-1.7,1.3-3,3-3h3C6,0,6,6,6,6z"
     id="path211" /></g>
<g
   transform="translate(934.375,428.375) scale(3.9483333333333)"
   id="g213"><path
     d="M3,6H0V0l3,0c1.7,0,3,1.3,3,3v0C6,4.7,4.7,6,3,6z"
     id="path212" /></g>
<g
   transform="translate(129.375,451.375) scale(3.9483333333333)"
   id="g214"><path
     d="M6,6H0V3c0-1.7,1.3-3,3-3l3,0V6z"
     id="path213" /></g>
<g
   transform="translate(152.375,451.375) scale(3.9483333333333)"
   id="g215"><path
     d="M3,6H0V0l6,0v3C6,4.7,4.7,6,3,6z"
     id="path214" /></g>
<g
   transform="translate(290.375,451.375) scale(3.9483333333333)"
   id="g216"><path
     d="M6,6H3C1.3,6,0,4.7,0,3v0c0-1.7,1.3-3,3-3h3C6,0,6,6,6,6z"
     id="path215" /></g>
<g
   transform="translate(313.375,451.375) scale(3.9483333333333)"
   id="g217"><path
     d="M3,6H0V0l3,0c1.7,0,3,1.3,3,3v0C6,4.7,4.7,6,3,6z"
     id="path216" /></g>
<g
   transform="translate(382.375,451.375) scale(3.9483333333333)"
   id="g218"><path
     d="M3,6L3,6C1.3,6,0,4.7,0,3V0h6v3C6,4.7,4.7,6,3,6z"
     id="path217" /></g>
<g
   transform="translate(658.375,451.375) scale(3.9483333333333)"
   id="g219"><path
     d="M3,6L3,6C1.3,6,0,4.7,0,3V0h6v3C6,4.7,4.7,6,3,6z"
     id="path218" /></g>
<g
   transform="translate(704.375,451.375) scale(3.9483333333333)"
   id="g220"><path
     d="M6,6H0V3c0-1.7,1.3-3,3-3h0c1.7,0,3,1.3,3,3V6z"
     id="path219" /></g>
<g
   transform="translate(750.375,451.375) scale(3.9483333333333)"
   id="g221"><circle
     cx="3"
     cy="3"
     r="3"
     id="circle220" /></g>
<g
   transform="translate(796.375,451.375) scale(3.9483333333333)"
   id="g222"><rect
     width="6"
     height="6"
     id="rect221" /></g>
<g
   transform="translate(819.375,451.375) scale(3.9483333333333)"
   id="g223"><path
     d="M6,6H0V0l3,0c1.7,0,3,1.3,3,3V6z"
     id="path222" /></g>
<g
   transform="translate(129.375,474.375) scale(3.9483333333333)"
   id="g224"><path
     d="M3,6L3,6C1.3,6,0,4.7,0,3V0h6v3C6,4.7,4.7,6,3,6z"
     id="path223" /></g>
<g
   transform="translate(175.375,474.375) scale(3.9483333333333)"
   id="g225"><path
     d="M6,6H0V3c0-1.7,1.3-3,3-3l3,0V6z"
     id="path224" /></g>
<g
   transform="translate(198.375,474.375) scale(3.9483333333333)"
   id="g226"><path
     d="M3,6H0V0l3,0c1.7,0,3,1.3,3,3v0C6,4.7,4.7,6,3,6z"
     id="path225" /></g>
<g
   transform="translate(244.375,474.375) scale(3.9483333333333)"
   id="g227"><path
     d="M6,6H3C1.3,6,0,4.7,0,3v0c0-1.7,1.3-3,3-3h3C6,0,6,6,6,6z"
     id="path226" /></g>
<g
   transform="translate(267.375,474.375) scale(3.9483333333333)"
   id="g228"><path
     d="M6,6H0V0l3,0c1.7,0,3,1.3,3,3V6z"
     id="path227" /></g>
<g
   transform="translate(359.375,474.375) scale(3.9483333333333)"
   id="g229"><circle
     cx="3"
     cy="3"
     r="3"
     id="circle228" /></g>
<g
   transform="translate(681.375,474.375) scale(3.9483333333333)"
   id="g230"><path
     d="M6,6H3C1.3,6,0,4.7,0,3v0c0-1.7,1.3-3,3-3h3C6,0,6,6,6,6z"
     id="path229" /></g>
<g
   transform="translate(704.375,474.375) scale(3.9483333333333)"
   id="g231"><rect
     width="6"
     height="6"
     id="rect230" /></g>
<g
   transform="translate(796.375,474.375) scale(3.9483333333333)"
   id="g232"><path
     d="M6,6H3C1.3,6,0,4.7,0,3V0l6,0V6z"
     id="path231" /></g>
<g
   transform="translate(819.375,474.375) scale(3.9483333333333)"
   id="g233"><rect
     width="6"
     height="6"
     id="rect232" /></g>
<g
   transform="translate(842.375,474.375) scale(3.9483333333333)"
   id="g234"><path
     d="M3,6H0V0l3,0c1.7,0,3,1.3,3,3v0C6,4.7,4.7,6,3,6z"
     id="path233" /></g>
<g
   transform="translate(888.375,474.375) scale(3.9483333333333)"
   id="g235"><circle
     cx="3"
     cy="3"
     r="3"
     id="circle234" /></g>
<g
   transform="translate(934.375,474.375) scale(3.9483333333333)"
   id="g236"><circle
     cx="3"
     cy="3"
     r="3"
     id="circle235" /></g>
<g
   transform="translate(106.375,497.375) scale(3.9483333333333)"
   id="g237"><path
     d="M6,6H0V3c0-1.7,1.3-3,3-3h0c1.7,0,3,1.3,3,3V6z"
     id="path236" /></g>
<g
   transform="translate(152.375,497.375) scale(3.9483333333333)"
   id="g238"><path
     d="M6,6H3C1.3,6,0,4.7,0,3v0c0-1.7,1.3-3,3-3h3C6,0,6,6,6,6z"
     id="path237" /></g>
<g
   transform="translate(175.375,497.375) scale(3.9483333333333)"
   id="g239"><rect
     width="6"
     height="6"
     id="rect238" /></g>
<g
   transform="translate(267.375,497.375) scale(3.9483333333333)"
   id="g240"><rect
     width="6"
     height="6"
     id="rect239" /></g>
<g
   transform="translate(313.375,497.375) scale(3.9483333333333)"
   id="g241"><path
     d="M6,6H0V3c0-1.7,1.3-3,3-3h0c1.7,0,3,1.3,3,3V6z"
     id="path240" /></g>
<g
   transform="translate(704.375,497.375) scale(3.9483333333333)"
   id="g242"><rect
     width="6"
     height="6"
     id="rect241" /></g>
<g
   transform="translate(750.375,497.375) scale(3.9483333333333)"
   id="g243"><path
     d="M6,6H3C1.3,6,0,4.7,0,3v0c0-1.7,1.3-3,3-3h3C6,0,6,6,6,6z"
     id="path242" /></g>
<g
   transform="translate(773.375,497.375) scale(3.9483333333333)"
   id="g244"><path
     d="M3,6H0V0l3,0c1.7,0,3,1.3,3,3v0C6,4.7,4.7,6,3,6z"
     id="path243" /></g>
<g
   transform="translate(819.375,497.375) scale(3.9483333333333)"
   id="g245"><rect
     width="6"
     height="6"
     id="rect244" /></g>
<g
   transform="translate(865.375,497.375) scale(3.9483333333333)"
   id="g246"><circle
     cx="3"
     cy="3"
     r="3"
     id="circle245" /></g>
<g
   transform="translate(106.375,520.375) scale(3.9483333333333)"
   id="g247"><path
     d="M6,6H3C1.3,6,0,4.7,0,3V0l6,0V6z"
     id="path246" /></g>
<g
   transform="translate(129.375,520.375) scale(3.9483333333333)"
   id="g248"><path
     d="M6,6H0V0l3,0c1.7,0,3,1.3,3,3V6z"
     id="path247" /></g>
<g
   transform="translate(175.375,520.375) scale(3.9483333333333)"
   id="g249"><rect
     width="6"
     height="6"
     id="rect248" /></g>
<g
   transform="translate(221.375,520.375) scale(3.9483333333333)"
   id="g250"><path
     d="M6,6H0V3c0-1.7,1.3-3,3-3l3,0V6z"
     id="path249" /></g>
<g
   transform="translate(244.375,520.375) scale(3.9483333333333)"
   id="g251"><rect
     width="6"
     height="6"
     id="rect250" /></g>
<g
   transform="translate(267.375,520.375) scale(3.9483333333333)"
   id="g252"><path
     d="M3,6H0V0l6,0v3C6,4.7,4.7,6,3,6z"
     id="path251" /></g>
<g
   transform="translate(313.375,520.375) scale(3.9483333333333)"
   id="g253"><path
     d="M6,6H3C1.3,6,0,4.7,0,3V0l6,0V6z"
     id="path252" /></g>
<g
   transform="translate(336.375,520.375) scale(3.9483333333333)"
   id="g254"><path
     d="M3,6H0V0l3,0c1.7,0,3,1.3,3,3v0C6,4.7,4.7,6,3,6z"
     id="path253" /></g>
<g
   transform="translate(658.375,520.375) scale(3.9483333333333)"
   id="g255"><circle
     cx="3"
     cy="3"
     r="3"
     id="circle254" /></g>
<g
   transform="translate(704.375,520.375) scale(3.9483333333333)"
   id="g256"><rect
     width="6"
     height="6"
     id="rect255" /></g>
<g
   transform="translate(727.375,520.375) scale(3.9483333333333)"
   id="g257"><path
     d="M6,6H0V0l3,0c1.7,0,3,1.3,3,3V6z"
     id="path256" /></g>
<g
   transform="translate(796.375,520.375) scale(3.9483333333333)"
   id="g258"><path
     d="M6,6H0V3c0-1.7,1.3-3,3-3l3,0V6z"
     id="path257" /></g>
<g
   transform="translate(819.375,520.375) scale(3.9483333333333)"
   id="g259"><path
     d="M3,6H0V0l6,0v3C6,4.7,4.7,6,3,6z"
     id="path258" /></g>
<g
   transform="translate(888.375,520.375) scale(3.9483333333333)"
   id="g260"><path
     d="M6,6H3C1.3,6,0,4.7,0,3v0c0-1.7,1.3-3,3-3h3C6,0,6,6,6,6z"
     id="path259" /></g>
<g
   transform="translate(911.375,520.375) scale(3.9483333333333)"
   id="g261"><rect
     width="6"
     height="6"
     id="rect260" /></g>
<g
   transform="translate(934.375,520.375) scale(3.9483333333333)"
   id="g262"><path
     d="M6,6H0V0l3,0c1.7,0,3,1.3,3,3V6z"
     id="path261" /></g>
<g
   transform="translate(129.375,543.375) scale(3.9483333333333)"
   id="g263"><path
     d="M3,6L3,6C1.3,6,0,4.7,0,3V0h6v3C6,4.7,4.7,6,3,6z"
     id="path262" /></g>
<g
   transform="translate(175.375,543.375) scale(3.9483333333333)"
   id="g264"><path
     d="M3,6L3,6C1.3,6,0,4.7,0,3V0h6v3C6,4.7,4.7,6,3,6z"
     id="path263" /></g>
<g
   transform="translate(221.375,543.375) scale(3.9483333333333)"
   id="g265"><rect
     width="6"
     height="6"
     id="rect264" /></g>
<g
   transform="translate(290.375,543.375) scale(3.9483333333333)"
   id="g266"><circle
     cx="3"
     cy="3"
     r="3"
     id="circle265" /></g>
<g
   transform="translate(382.375,543.375) scale(3.9483333333333)"
   id="g267"><path
     d="M6,6H0V3c0-1.7,1.3-3,3-3h0c1.7,0,3,1.3,3,3V6z"
     id="path266" /></g>
<g
   transform="translate(704.375,543.375) scale(3.9483333333333)"
   id="g268"><path
     d="M6,6H3C1.3,6,0,4.7,0,3V0l6,0V6z"
     id="path267" /></g>
<g
   transform="translate(727.375,543.375) scale(3.9483333333333)"
   id="g269"><rect
     width="6"
     height="6"
     id="rect268" /></g>
<g
   transform="translate(750.375,543.375) scale(3.9483333333333)"
   id="g270"><rect
     width="6"
     height="6"
     id="rect269" /></g>
<g
   transform="translate(773.375,543.375) scale(3.9483333333333)"
   id="g271"><rect
     width="6"
     height="6"
     id="rect270" /></g>
<g
   transform="translate(796.375,543.375) scale(3.9483333333333)"
   id="g272"><rect
     width="6"
     height="6"
     id="rect271" /></g>
<g
   transform="translate(842.375,543.375) scale(3.9483333333333)"
   id="g273"><path
     d="M6,6H0V3c0-1.7,1.3-3,3-3h0c1.7,0,3,1.3,3,3V6z"
     id="path272" /></g>
<g
   transform="translate(934.375,543.375) scale(3.9483333333333)"
   id="g274"><path
     d="M3,6L3,6C1.3,6,0,4.7,0,3V0h6v3C6,4.7,4.7,6,3,6z"
     id="path273" /></g>
<g
   transform="translate(106.375,566.375) scale(3.9483333333333)"
   id="g275"><circle
     cx="3"
     cy="3"
     r="3"
     id="circle274" /></g>
<g
   transform="translate(198.375,566.375) scale(3.9483333333333)"
   id="g276"><path
     d="M6,6H0V3c0-1.7,1.3-3,3-3l3,0V6z"
     id="path275" /></g>
<g
   transform="translate(221.375,566.375) scale(3.9483333333333)"
   id="g277"><rect
     width="6"
     height="6"
     id="rect276" /></g>
<g
   transform="translate(244.375,566.375) scale(3.9483333333333)"
   id="g278"><rect
     width="6"
     height="6"
     id="rect277" /></g>
<g
   transform="translate(267.375,566.375) scale(3.9483333333333)"
   id="g279"><path
     d="M6,6H0V0l3,0c1.7,0,3,1.3,3,3V6z"
     id="path278" /></g>
<g
   transform="translate(313.375,566.375) scale(3.9483333333333)"
   id="g280"><circle
     cx="3"
     cy="3"
     r="3"
     id="circle279" /></g>
<g
   transform="translate(359.375,566.375) scale(3.9483333333333)"
   id="g281"><path
     d="M6,6H0V3c0-1.7,1.3-3,3-3l3,0V6z"
     id="path280" /></g>
<g
   transform="translate(382.375,566.375) scale(3.9483333333333)"
   id="g282"><rect
     width="6"
     height="6"
     id="rect281" /></g>
<g
   transform="translate(681.375,566.375) scale(3.9483333333333)"
   id="g283"><circle
     cx="3"
     cy="3"
     r="3"
     id="circle282" /></g>
<g
   transform="translate(727.375,566.375) scale(3.9483333333333)"
   id="g284"><path
     d="M3,6L3,6C1.3,6,0,4.7,0,3V0h6v3C6,4.7,4.7,6,3,6z"
     id="path283" /></g>
<g
   transform="translate(773.375,566.375) scale(3.9483333333333)"
   id="g285"><rect
     width="6"
     height="6"
     id="rect284" /></g>
<g
   transform="translate(796.375,566.375) scale(3.9483333333333)"
   id="g286"><rect
     width="6"
     height="6"
     id="rect285" /></g>
<g
   transform="translate(819.375,566.375) scale(3.9483333333333)"
   id="g287"><rect
     width="6"
     height="6"
     id="rect286" /></g>
<g
   transform="translate(842.375,566.375) scale(3.9483333333333)"
   id="g288"><path
     d="M3,6H0V0l6,0v3C6,4.7,4.7,6,3,6z"
     id="path287" /></g>
<g
   transform="translate(888.375,566.375) scale(3.9483333333333)"
   id="g289"><circle
     cx="3"
     cy="3"
     r="3"
     id="circle288" /></g>
<g
   transform="translate(129.375,589.375) scale(3.9483333333333)"
   id="g290"><path
     d="M6,6H0V3c0-1.7,1.3-3,3-3h0c1.7,0,3,1.3,3,3V6z"
     id="path289" /></g>
<g
   transform="translate(175.375,589.375) scale(3.9483333333333)"
   id="g291"><path
     d="M6,6H3C1.3,6,0,4.7,0,3v0c0-1.7,1.3-3,3-3h3C6,0,6,6,6,6z"
     id="path290" /></g>
<g
   transform="translate(198.375,589.375) scale(3.9483333333333)"
   id="g292"><rect
     width="6"
     height="6"
     id="rect291" /></g>
<g
   transform="translate(267.375,589.375) scale(3.9483333333333)"
   id="g293"><path
     d="M3,6L3,6C1.3,6,0,4.7,0,3V0h6v3C6,4.7,4.7,6,3,6z"
     id="path292" /></g>
<g
   transform="translate(336.375,589.375) scale(3.9483333333333)"
   id="g294"><path
     d="M6,6H3C1.3,6,0,4.7,0,3v0c0-1.7,1.3-3,3-3h3C6,0,6,6,6,6z"
     id="path293" /></g>
<g
   transform="translate(359.375,589.375) scale(3.9483333333333)"
   id="g295"><rect
     width="6"
     height="6"
     id="rect294" /></g>
<g
   transform="translate(382.375,589.375) scale(3.9483333333333)"
   id="g296"><path
     d="M3,6H0V0l6,0v3C6,4.7,4.7,6,3,6z"
     id="path295" /></g>
<g
   transform="translate(658.375,589.375) scale(3.9483333333333)"
   id="g297"><circle
     cx="3"
     cy="3"
     r="3"
     id="circle296" /></g>
<g
   transform="translate(773.375,589.375) scale(3.9483333333333)"
   id="g298"><rect
     width="6"
     height="6"
     id="rect297" /></g>
<g
   transform="translate(819.375,589.375) scale(3.9483333333333)"
   id="g299"><path
     d="M3,6L3,6C1.3,6,0,4.7,0,3V0h6v3C6,4.7,4.7,6,3,6z"
     id="path298" /></g>
<g
   transform="translate(911.375,589.375) scale(3.9483333333333)"
   id="g300"><path
     d="M6,6H0V3c0-1.7,1.3-3,3-3h0c1.7,0,3,1.3,3,3V6z"
     id="path299" /></g>
<g
   transform="translate(106.375,612.375) scale(3.9483333333333)"
   id="g301"><path
     d="M6,6H3C1.3,6,0,4.7,0,3v0c0-1.7,1.3-3,3-3h3C6,0,6,6,6,6z"
     id="path300" /></g>
<g
   transform="translate(129.375,612.375) scale(3.9483333333333)"
   id="g302"><path
     d="M3,6H0V0l6,0v3C6,4.7,4.7,6,3,6z"
     id="path301" /></g>
<g
   transform="translate(198.375,612.375) scale(3.9483333333333)"
   id="g303"><path
     d="M3,6L3,6C1.3,6,0,4.7,0,3V0h6v3C6,4.7,4.7,6,3,6z"
     id="path302" /></g>
<g
   transform="translate(244.375,612.375) scale(3.9483333333333)"
   id="g304"><circle
     cx="3"
     cy="3"
     r="3"
     id="circle303" /></g>
<g
   transform="translate(290.375,612.375) scale(3.9483333333333)"
   id="g305"><path
     d="M6,6H0V3c0-1.7,1.3-3,3-3h0c1.7,0,3,1.3,3,3V6z"
     id="path304" /></g>
<g
   transform="translate(359.375,612.375) scale(3.9483333333333)"
   id="g306"><path
     d="M3,6L3,6C1.3,6,0,4.7,0,3V0h6v3C6,4.7,4.7,6,3,6z"
     id="path305" /></g>
<g
   transform="translate(727.375,612.375) scale(3.9483333333333)"
   id="g307"><circle
     cx="3"
     cy="3"
     r="3"
     id="circle306" /></g>
<g
   transform="translate(773.375,612.375) scale(3.9483333333333)"
   id="g308"><rect
     width="6"
     height="6"
     id="rect307" /></g>
<g
   transform="translate(796.375,612.375) scale(3.9483333333333)"
   id="g309"><path
     d="M6,6H0V0l3,0c1.7,0,3,1.3,3,3V6z"
     id="path308" /></g>
<g
   transform="translate(865.375,612.375) scale(3.9483333333333)"
   id="g310"><path
     d="M6,6H0V3c0-1.7,1.3-3,3-3l3,0V6z"
     id="path309" /></g>
<g
   transform="translate(888.375,612.375) scale(3.9483333333333)"
   id="g311"><rect
     width="6"
     height="6"
     id="rect310" /></g>
<g
   transform="translate(911.375,612.375) scale(3.9483333333333)"
   id="g312"><rect
     width="6"
     height="6"
     id="rect311" /></g>
<g
   transform="translate(934.375,612.375) scale(3.9483333333333)"
   id="g313"><path
     d="M6,6H0V0l3,0c1.7,0,3,1.3,3,3V6z"
     id="path312" /></g>
<g
   transform="translate(175.375,635.375) scale(3.9483333333333)"
   id="g314"><circle
     cx="3"
     cy="3"
     r="3"
     id="circle313" /></g>
<g
   transform="translate(267.375,635.375) scale(3.9483333333333)"
   id="g315"><path
     d="M6,6H3C1.3,6,0,4.7,0,3v0c0-1.7,1.3-3,3-3h3C6,0,6,6,6,6z"
     id="path314" /></g>
<g
   transform="translate(290.375,635.375) scale(3.9483333333333)"
   id="g316"><rect
     width="6"
     height="6"
     id="rect315" /></g>
<g
   transform="translate(336.375,635.375) scale(3.9483333333333)"
   id="g317"><circle
     cx="3"
     cy="3"
     r="3"
     id="circle316" /></g>
<g
   transform="translate(382.375,635.375) scale(3.9483333333333)"
   id="g318"><path
     d="M6,6H0V3c0-1.7,1.3-3,3-3h0c1.7,0,3,1.3,3,3V6z"
     id="path317" /></g>
<g
   transform="translate(658.375,635.375) scale(3.9483333333333)"
   id="g319"><circle
     cx="3"
     cy="3"
     r="3"
     id="circle318" /></g>
<g
   transform="translate(704.375,635.375) scale(3.9483333333333)"
   id="g320"><circle
     cx="3"
     cy="3"
     r="3"
     id="circle319" /></g>
<g
   transform="translate(773.375,635.375) scale(3.9483333333333)"
   id="g321"><rect
     width="6"
     height="6"
     id="rect320" /></g>
<g
   transform="translate(796.375,635.375) scale(3.9483333333333)"
   id="g322"><rect
     width="6"
     height="6"
     id="rect321" /></g>
<g
   transform="translate(819.375,635.375) scale(3.9483333333333)"
   id="g323"><path
     d="M3,6H0V0l3,0c1.7,0,3,1.3,3,3v0C6,4.7,4.7,6,3,6z"
     id="path322" /></g>
<g
   transform="translate(865.375,635.375) scale(3.9483333333333)"
   id="g324"><rect
     width="6"
     height="6"
     id="rect323" /></g>
<g
   transform="translate(911.375,635.375) scale(3.9483333333333)"
   id="g325"><rect
     width="6"
     height="6"
     id="rect324" /></g>
<g
   transform="translate(934.375,635.375) scale(3.9483333333333)"
   id="g326"><rect
     width="6"
     height="6"
     id="rect325" /></g>
<g
   transform="translate(152.375,658.375) scale(3.9483333333333)"
   id="g327"><path
     d="M6,6H0V3c0-1.7,1.3-3,3-3h0c1.7,0,3,1.3,3,3V6z"
     id="path326" /></g>
<g
   transform="translate(198.375,658.375) scale(3.9483333333333)"
   id="g328"><circle
     cx="3"
     cy="3"
     r="3"
     id="circle327" /></g>
<g
   transform="translate(244.375,658.375) scale(3.9483333333333)"
   id="g329"><circle
     cx="3"
     cy="3"
     r="3"
     id="circle328" /></g>
<g
   transform="translate(290.375,658.375) scale(3.9483333333333)"
   id="g330"><path
     d="M6,6H3C1.3,6,0,4.7,0,3V0l6,0V6z"
     id="path329" /></g>
<g
   transform="translate(313.375,658.375) scale(3.9483333333333)"
   id="g331"><path
     d="M6,6H0V0l3,0c1.7,0,3,1.3,3,3V6z"
     id="path330" /></g>
<g
   transform="translate(382.375,658.375) scale(3.9483333333333)"
   id="g332"><rect
     width="6"
     height="6"
     id="rect331" /></g>
<g
   transform="translate(451.375,658.375) scale(3.9483333333333)"
   id="g333"><path
     d="M6,6H0V3c0-1.7,1.3-3,3-3h0c1.7,0,3,1.3,3,3V6z"
     id="path332" /></g>
<g
   transform="translate(520.375,658.375) scale(3.9483333333333)"
   id="g334"><circle
     cx="3"
     cy="3"
     r="3"
     id="circle333" /></g>
<g
   transform="translate(612.375,658.375) scale(3.9483333333333)"
   id="g335"><path
     d="M6,6H0V3c0-1.7,1.3-3,3-3l3,0V6z"
     id="path334" /></g>
<g
   transform="translate(635.375,658.375) scale(3.9483333333333)"
   id="g336"><path
     d="M3,6H0V0l3,0c1.7,0,3,1.3,3,3v0C6,4.7,4.7,6,3,6z"
     id="path335" /></g>
<g
   transform="translate(773.375,658.375) scale(3.9483333333333)"
   id="g337"><rect
     width="6"
     height="6"
     id="rect336" /></g>
<g
   transform="translate(796.375,658.375) scale(3.9483333333333)"
   id="g338"><path
     d="M3,6H0V0l6,0v3C6,4.7,4.7,6,3,6z"
     id="path337" /></g>
<g
   transform="translate(842.375,658.375) scale(3.9483333333333)"
   id="g339"><path
     d="M6,6H3C1.3,6,0,4.7,0,3v0c0-1.7,1.3-3,3-3h3C6,0,6,6,6,6z"
     id="path338" /></g>
<g
   transform="translate(865.375,658.375) scale(3.9483333333333)"
   id="g340"><rect
     width="6"
     height="6"
     id="rect339" /></g>
<g
   transform="translate(888.375,658.375) scale(3.9483333333333)"
   id="g341"><rect
     width="6"
     height="6"
     id="rect340" /></g>
<g
   transform="translate(911.375,658.375) scale(3.9483333333333)"
   id="g342"><rect
     width="6"
     height="6"
     id="rect341" /></g>
<g
   transform="translate(934.375,658.375) scale(3.9483333333333)"
   id="g343"><path
     d="M3,6H0V0l6,0v3C6,4.7,4.7,6,3,6z"
     id="path342" /></g>
<g
   transform="translate(106.375,681.375) scale(3.9483333333333)"
   id="g344"><path
     d="M6,6H0V3c0-1.7,1.3-3,3-3h0c1.7,0,3,1.3,3,3V6z"
     id="path343" /></g>
<g
   transform="translate(152.375,681.375) scale(3.9483333333333)"
   id="g345"><path
     d="M3,6L3,6C1.3,6,0,4.7,0,3V0h6v3C6,4.7,4.7,6,3,6z"
     id="path344" /></g>
<g
   transform="translate(267.375,681.375) scale(3.9483333333333)"
   id="g346"><circle
     cx="3"
     cy="3"
     r="3"
     id="circle345" /></g>
<g
   transform="translate(313.375,681.375) scale(3.9483333333333)"
   id="g347"><rect
     width="6"
     height="6"
     id="rect346" /></g>
<g
   transform="translate(382.375,681.375) scale(3.9483333333333)"
   id="g348"><rect
     width="6"
     height="6"
     id="rect347" /></g>
<g
   transform="translate(428.375,681.375) scale(3.9483333333333)"
   id="g349"><path
     d="M6,6H0V3c0-1.7,1.3-3,3-3l3,0V6z"
     id="path348" /></g>
<g
   transform="translate(451.375,681.375) scale(3.9483333333333)"
   id="g350"><rect
     width="6"
     height="6"
     id="rect349" /></g>
<g
   transform="translate(474.375,681.375) scale(3.9483333333333)"
   id="g351"><rect
     width="6"
     height="6"
     id="rect350" /></g>
<g
   transform="translate(497.375,681.375) scale(3.9483333333333)"
   id="g352"><path
     d="M3,6H0V0l3,0c1.7,0,3,1.3,3,3v0C6,4.7,4.7,6,3,6z"
     id="path351" /></g>
<g
   transform="translate(543.375,681.375) scale(3.9483333333333)"
   id="g353"><circle
     cx="3"
     cy="3"
     r="3"
     id="circle352" /></g>
<g
   transform="translate(612.375,681.375) scale(3.9483333333333)"
   id="g354"><path
     d="M3,6L3,6C1.3,6,0,4.7,0,3V0h6v3C6,4.7,4.7,6,3,6z"
     id="path353" /></g>
<g
   transform="translate(658.375,681.375) scale(3.9483333333333)"
   id="g355"><circle
     cx="3"
     cy="3"
     r="3"
     id="circle354" /></g>
<g
   transform="translate(704.375,681.375) scale(3.9483333333333)"
   id="g356"><circle
     cx="3"
     cy="3"
     r="3"
     id="circle355" /></g>
<g
   transform="translate(773.375,681.375) scale(3.9483333333333)"
   id="g357"><path
     d="M3,6L3,6C1.3,6,0,4.7,0,3V0h6v3C6,4.7,4.7,6,3,6z"
     id="path356" /></g>
<g
   transform="translate(819.375,681.375) scale(3.9483333333333)"
   id="g358"><path
     d="M6,6H0V3c0-1.7,1.3-3,3-3h0c1.7,0,3,1.3,3,3V6z"
     id="path357" /></g>
<g
   transform="translate(865.375,681.375) scale(3.9483333333333)"
   id="g359"><path
     d="M6,6H3C1.3,6,0,4.7,0,3V0l6,0V6z"
     id="path358" /></g>
<g
   transform="translate(888.375,681.375) scale(3.9483333333333)"
   id="g360"><rect
     width="6"
     height="6"
     id="rect359" /></g>
<g
   transform="translate(911.375,681.375) scale(3.9483333333333)"
   id="g361"><rect
     width="6"
     height="6"
     id="rect360" /></g>
<g
   transform="translate(106.375,704.375) scale(3.9483333333333)"
   id="g362"><rect
     width="6"
     height="6"
     id="rect361" /></g>
<g
   transform="translate(221.375,704.375) scale(3.9483333333333)"
   id="g363"><path
     d="M6,6H3C1.3,6,0,4.7,0,3v0c0-1.7,1.3-3,3-3h3C6,0,6,6,6,6z"
     id="path362" /></g>
<g
   transform="translate(244.375,704.375) scale(3.9483333333333)"
   id="g364"><path
     d="M3,6H0V0l3,0c1.7,0,3,1.3,3,3v0C6,4.7,4.7,6,3,6z"
     id="path363" /></g>
<g
   transform="translate(313.375,704.375) scale(3.9483333333333)"
   id="g365"><rect
     width="6"
     height="6"
     id="rect364" /></g>
<g
   transform="translate(359.375,704.375) scale(3.9483333333333)"
   id="g366"><path
     d="M6,6H3C1.3,6,0,4.7,0,3v0c0-1.7,1.3-3,3-3h3C6,0,6,6,6,6z"
     id="path365" /></g>
<g
   transform="translate(382.375,704.375) scale(3.9483333333333)"
   id="g367"><rect
     width="6"
     height="6"
     id="rect366" /></g>
<g
   transform="translate(428.375,704.375) scale(3.9483333333333)"
   id="g368"><rect
     width="6"
     height="6"
     id="rect367" /></g>
<g
   transform="translate(681.375,704.375) scale(3.9483333333333)"
   id="g369"><circle
     cx="3"
     cy="3"
     r="3"
     id="circle368" /></g>
<g
   transform="translate(727.375,704.375) scale(3.9483333333333)"
   id="g370"><circle
     cx="3"
     cy="3"
     r="3"
     id="circle369" /></g>
<g
   transform="translate(796.375,704.375) scale(3.9483333333333)"
   id="g371"><path
     d="M6,6H3C1.3,6,0,4.7,0,3v0c0-1.7,1.3-3,3-3h3C6,0,6,6,6,6z"
     id="path370" /></g>
<g
   transform="translate(819.375,704.375) scale(3.9483333333333)"
   id="g372"><rect
     width="6"
     height="6"
     id="rect371" /></g>
<g
   transform="translate(842.375,704.375) scale(3.9483333333333)"
   id="g373"><path
     d="M3,6H0V0l3,0c1.7,0,3,1.3,3,3v0C6,4.7,4.7,6,3,6z"
     id="path372" /></g>
<g
   transform="translate(911.375,704.375) scale(3.9483333333333)"
   id="g374"><path
     d="M6,6H3C1.3,6,0,4.7,0,3V0l6,0V6z"
     id="path373" /></g>
<g
   transform="translate(934.375,704.375) scale(3.9483333333333)"
   id="g375"><path
     d="M3,6H0V0l3,0c1.7,0,3,1.3,3,3v0C6,4.7,4.7,6,3,6z"
     id="path374" /></g>
<g
   transform="translate(106.375,727.375) scale(3.9483333333333)"
   id="g376"><rect
     width="6"
     height="6"
     id="rect375" /></g>
<g
   transform="translate(175.375,727.375) scale(3.9483333333333)"
   id="g377"><path
     d="M6,6H0V3c0-1.7,1.3-3,3-3l3,0V6z"
     id="path376" /></g>
<g
   transform="translate(198.375,727.375) scale(3.9483333333333)"
   id="g378"><path
     d="M3,6H0V0l3,0c1.7,0,3,1.3,3,3v0C6,4.7,4.7,6,3,6z"
     id="path377" /></g>
<g
   transform="translate(313.375,727.375) scale(3.9483333333333)"
   id="g379"><path
     d="M6,6H3C1.3,6,0,4.7,0,3V0l6,0V6z"
     id="path378" /></g>
<g
   transform="translate(336.375,727.375) scale(3.9483333333333)"
   id="g380"><path
     d="M6,6H0V0l3,0c1.7,0,3,1.3,3,3V6z"
     id="path379" /></g>
<g
   transform="translate(382.375,727.375) scale(3.9483333333333)"
   id="g381"><path
     d="M6,6H3C1.3,6,0,4.7,0,3V0l6,0V6z"
     id="path380" /></g>
<g
   transform="translate(405.375,727.375) scale(3.9483333333333)"
   id="g382"><rect
     width="6"
     height="6"
     id="rect381" /></g>
<g
   transform="translate(428.375,727.375) scale(3.9483333333333)"
   id="g383"><rect
     width="6"
     height="6"
     id="rect382" /></g>
<g
   transform="translate(451.375,727.375) scale(3.9483333333333)"
   id="g384"><path
     d="M6,6H0V0l3,0c1.7,0,3,1.3,3,3V6z"
     id="path383" /></g>
<g
   transform="translate(497.375,727.375) scale(3.9483333333333)"
   id="g385"><path
     d="M6,6H3C1.3,6,0,4.7,0,3v0c0-1.7,1.3-3,3-3h3C6,0,6,6,6,6z"
     id="path384" /></g>
<g
   transform="translate(520.375,727.375) scale(3.9483333333333)"
   id="g386"><rect
     width="6"
     height="6"
     id="rect385" /></g>
<g
   transform="translate(543.375,727.375) scale(3.9483333333333)"
   id="g387"><path
     d="M3,6H0V0l3,0c1.7,0,3,1.3,3,3v0C6,4.7,4.7,6,3,6z"
     id="path386" /></g>
<g
   transform="translate(658.375,727.375) scale(3.9483333333333)"
   id="g388"><path
     d="M6,6H0V3c0-1.7,1.3-3,3-3h0c1.7,0,3,1.3,3,3V6z"
     id="path387" /></g>
<g
   transform="translate(704.375,727.375) scale(3.9483333333333)"
   id="g389"><path
     d="M6,6H0V3c0-1.7,1.3-3,3-3h0c1.7,0,3,1.3,3,3V6z"
     id="path388" /></g>
<g
   transform="translate(773.375,727.375) scale(3.9483333333333)"
   id="g390"><path
     d="M6,6H0V3c0-1.7,1.3-3,3-3h0c1.7,0,3,1.3,3,3V6z"
     id="path389" /></g>
<g
   transform="translate(819.375,727.375) scale(3.9483333333333)"
   id="g391"><rect
     width="6"
     height="6"
     id="rect390" /></g>
<g
   transform="translate(106.375,750.375) scale(3.9483333333333)"
   id="g392"><path
     d="M3,6L3,6C1.3,6,0,4.7,0,3V0h6v3C6,4.7,4.7,6,3,6z"
     id="path391" /></g>
<g
   transform="translate(175.375,750.375) scale(3.9483333333333)"
   id="g393"><path
     d="M3,6L3,6C1.3,6,0,4.7,0,3V0h6v3C6,4.7,4.7,6,3,6z"
     id="path392" /></g>
<g
   transform="translate(221.375,750.375) scale(3.9483333333333)"
   id="g394"><path
     d="M6,6H3C1.3,6,0,4.7,0,3v0c0-1.7,1.3-3,3-3h3C6,0,6,6,6,6z"
     id="path393" /></g>
<g
   transform="translate(244.375,750.375) scale(3.9483333333333)"
   id="g395"><rect
     width="6"
     height="6"
     id="rect394" /></g>
<g
   transform="translate(267.375,750.375) scale(3.9483333333333)"
   id="g396"><path
     d="M3,6H0V0l3,0c1.7,0,3,1.3,3,3v0C6,4.7,4.7,6,3,6z"
     id="path395" /></g>
<g
   transform="translate(336.375,750.375) scale(3.9483333333333)"
   id="g397"><rect
     width="6"
     height="6"
     id="rect396" /></g>
<g
   transform="translate(359.375,750.375) scale(3.9483333333333)"
   id="g398"><path
     d="M3,6H0V0l3,0c1.7,0,3,1.3,3,3v0C6,4.7,4.7,6,3,6z"
     id="path397" /></g>
<g
   transform="translate(428.375,750.375) scale(3.9483333333333)"
   id="g399"><rect
     width="6"
     height="6"
     id="rect398" /></g>
<g
   transform="translate(451.375,750.375) scale(3.9483333333333)"
   id="g400"><path
     d="M3,6H0V0l6,0v3C6,4.7,4.7,6,3,6z"
     id="path399" /></g>
<g
   transform="translate(658.375,750.375) scale(3.9483333333333)"
   id="g401"><path
     d="M6,6H3C1.3,6,0,4.7,0,3V0l6,0V6z"
     id="path400" /></g>
<g
   transform="translate(681.375,750.375) scale(3.9483333333333)"
   id="g402"><rect
     width="6"
     height="6"
     id="rect401" /></g>
<g
   transform="translate(704.375,750.375) scale(3.9483333333333)"
   id="g403"><rect
     width="6"
     height="6"
     id="rect402" /></g>
<g
   transform="translate(727.375,750.375) scale(3.9483333333333)"
   id="g404"><rect
     width="6"
     height="6"
     id="rect403" /></g>
<g
   transform="translate(750.375,750.375) scale(3.9483333333333)"
   id="g405"><rect
     width="6"
     height="6"
     id="rect404" /></g>
<g
   transform="translate(773.375,750.375) scale(3.9483333333333)"
   id="g406"><rect
     width="6"
     height="6"
     id="rect405" /></g>
<g
   transform="translate(796.375,750.375) scale(3.9483333333333)"
   id="g407"><rect
     width="6"
     height="6"
     id="rect406" /></g>
<g
   transform="translate(819.375,750.375) scale(3.9483333333333)"
   id="g408"><rect
     width="6"
     height="6"
     id="rect407" /></g>
<g
   transform="translate(842.375,750.375) scale(3.9483333333333)"
   id="g409"><rect
     width="6"
     height="6"
     id="rect408" /></g>
<g
   transform="translate(865.375,750.375) scale(3.9483333333333)"
   id="g410"><rect
     width="6"
     height="6"
     id="rect409" /></g>
<g
   transform="translate(888.375,750.375) scale(3.9483333333333)"
   id="g411"><rect
     width="6"
     height="6"
     id="rect410" /></g>
<g
   transform="translate(911.375,750.375) scale(3.9483333333333)"
   id="g412"><path
     d="M6,6H0V0l3,0c1.7,0,3,1.3,3,3V6z"
     id="path411" /></g>
<g
   transform="translate(290.375,773.375) scale(3.9483333333333)"
   id="g413"><path
     d="M6,6H3C1.3,6,0,4.7,0,3v0c0-1.7,1.3-3,3-3h3C6,0,6,6,6,6z"
     id="path412" /></g>
<g
   transform="translate(313.375,773.375) scale(3.9483333333333)"
   id="g414"><rect
     width="6"
     height="6"
     id="rect413" /></g>
<g
   transform="translate(336.375,773.375) scale(3.9483333333333)"
   id="g415"><rect
     width="6"
     height="6"
     id="rect414" /></g>
<g
   transform="translate(382.375,773.375) scale(3.9483333333333)"
   id="g416"><path
     d="M6,6H0V3c0-1.7,1.3-3,3-3h0c1.7,0,3,1.3,3,3V6z"
     id="path415" /></g>
<g
   transform="translate(428.375,773.375) scale(3.9483333333333)"
   id="g417"><rect
     width="6"
     height="6"
     id="rect416" /></g>
<g
   transform="translate(474.375,773.375) scale(3.9483333333333)"
   id="g418"><path
     d="M6,6H0V3c0-1.7,1.3-3,3-3h0c1.7,0,3,1.3,3,3V6z"
     id="path417" /></g>
<g
   transform="translate(589.375,773.375) scale(3.9483333333333)"
   id="g419"><path
     d="M6,6H0V3c0-1.7,1.3-3,3-3l3,0V6z"
     id="path418" /></g>
<g
   transform="translate(612.375,773.375) scale(3.9483333333333)"
   id="g420"><rect
     width="6"
     height="6"
     id="rect419" /></g>
<g
   transform="translate(635.375,773.375) scale(3.9483333333333)"
   id="g421"><path
     d="M3,6H0V0l3,0c1.7,0,3,1.3,3,3v0C6,4.7,4.7,6,3,6z"
     id="path420" /></g>
<g
   transform="translate(681.375,773.375) scale(3.9483333333333)"
   id="g422"><rect
     width="6"
     height="6"
     id="rect421" /></g>
<g
   transform="translate(727.375,773.375) scale(3.9483333333333)"
   id="g423"><path
     d="M6,6H3C1.3,6,0,4.7,0,3V0l6,0V6z"
     id="path422" /></g>
<g
   transform="translate(750.375,773.375) scale(3.9483333333333)"
   id="g424"><rect
     width="6"
     height="6"
     id="rect423" /></g>
<g
   transform="translate(842.375,773.375) scale(3.9483333333333)"
   id="g425"><rect
     width="6"
     height="6"
     id="rect424" /></g>
<g
   transform="translate(911.375,773.375) scale(3.9483333333333)"
   id="g426"><rect
     width="6"
     height="6"
     id="rect425" /></g>
<g
   transform="translate(336.375,796.375) scale(3.9483333333333)"
   id="g427"><rect
     width="6"
     height="6"
     id="rect426" /></g>
<g
   transform="translate(359.375,796.375) scale(3.9483333333333)"
   id="g428"><rect
     width="6"
     height="6"
     id="rect427" /></g>
<g
   transform="translate(382.375,796.375) scale(3.9483333333333)"
   id="g429"><rect
     width="6"
     height="6"
     id="rect428" /></g>
<g
   transform="translate(428.375,796.375) scale(3.9483333333333)"
   id="g430"><path
     d="M3,6L3,6C1.3,6,0,4.7,0,3V0h6v3C6,4.7,4.7,6,3,6z"
     id="path429" /></g>
<g
   transform="translate(474.375,796.375) scale(3.9483333333333)"
   id="g431"><path
     d="M3,6L3,6C1.3,6,0,4.7,0,3V0h6v3C6,4.7,4.7,6,3,6z"
     id="path430" /></g>
<g
   transform="translate(589.375,796.375) scale(3.9483333333333)"
   id="g432"><path
     d="M3,6L3,6C1.3,6,0,4.7,0,3V0h6v3C6,4.7,4.7,6,3,6z"
     id="path431" /></g>
<g
   transform="translate(658.375,796.375) scale(3.9483333333333)"
   id="g433"><path
     d="M6,6H3C1.3,6,0,4.7,0,3v0c0-1.7,1.3-3,3-3h3C6,0,6,6,6,6z"
     id="path432" /></g>
<g
   transform="translate(681.375,796.375) scale(3.9483333333333)"
   id="g434"><path
     d="M3,6H0V0l6,0v3C6,4.7,4.7,6,3,6z"
     id="path433" /></g>
<g
   transform="translate(750.375,796.375) scale(3.9483333333333)"
   id="g435"><rect
     width="6"
     height="6"
     id="rect434" /></g>
<g
   transform="translate(796.375,796.375) scale(3.9483333333333)"
   id="g436"><circle
     cx="3"
     cy="3"
     r="3"
     id="circle435" /></g>
<g
   transform="translate(842.375,796.375) scale(3.9483333333333)"
   id="g437"><rect
     width="6"
     height="6"
     id="rect436" /></g>
<g
   transform="translate(865.375,796.375) scale(3.9483333333333)"
   id="g438"><path
     d="M3,6H0V0l3,0c1.7,0,3,1.3,3,3v0C6,4.7,4.7,6,3,6z"
     id="path437" /></g>
<g
   transform="translate(911.375,796.375) scale(3.9483333333333)"
   id="g439"><rect
     width="6"
     height="6"
     id="rect438" /></g>
<g
   transform="translate(934.375,796.375) scale(3.9483333333333)"
   id="g440"><path
     d="M6,6H0V0l3,0c1.7,0,3,1.3,3,3V6z"
     id="path439" /></g>
<g
   transform="translate(336.375,819.375) scale(3.9483333333333)"
   id="g441"><path
     d="M6,6H3C1.3,6,0,4.7,0,3V0l6,0V6z"
     id="path440" /></g>
<g
   transform="translate(359.375,819.375) scale(3.9483333333333)"
   id="g442"><rect
     width="6"
     height="6"
     id="rect441" /></g>
<g
   transform="translate(382.375,819.375) scale(3.9483333333333)"
   id="g443"><rect
     width="6"
     height="6"
     id="rect442" /></g>
<g
   transform="translate(405.375,819.375) scale(3.9483333333333)"
   id="g444"><path
     d="M6,6H0V0l3,0c1.7,0,3,1.3,3,3V6z"
     id="path443" /></g>
<g
   transform="translate(497.375,819.375) scale(3.9483333333333)"
   id="g445"><path
     d="M6,6H0V3c0-1.7,1.3-3,3-3l3,0V6z"
     id="path444" /></g>
<g
   transform="translate(520.375,819.375) scale(3.9483333333333)"
   id="g446"><rect
     width="6"
     height="6"
     id="rect445" /></g>
<g
   transform="translate(543.375,819.375) scale(3.9483333333333)"
   id="g447"><path
     d="M3,6H0V0l3,0c1.7,0,3,1.3,3,3v0C6,4.7,4.7,6,3,6z"
     id="path446" /></g>
<g
   transform="translate(612.375,819.375) scale(3.9483333333333)"
   id="g448"><path
     d="M6,6H0V3c0-1.7,1.3-3,3-3h0c1.7,0,3,1.3,3,3V6z"
     id="path447" /></g>
<g
   transform="translate(727.375,819.375) scale(3.9483333333333)"
   id="g449"><path
     d="M6,6H0V3c0-1.7,1.3-3,3-3l3,0V6z"
     id="path448" /></g>
<g
   transform="translate(750.375,819.375) scale(3.9483333333333)"
   id="g450"><rect
     width="6"
     height="6"
     id="rect449" /></g>
<g
   transform="translate(842.375,819.375) scale(3.9483333333333)"
   id="g451"><rect
     width="6"
     height="6"
     id="rect450" /></g>
<g
   transform="translate(911.375,819.375) scale(3.9483333333333)"
   id="g452"><path
     d="M6,6H3C1.3,6,0,4.7,0,3V0l6,0V6z"
     id="path451" /></g>
<g
   transform="translate(934.375,819.375) scale(3.9483333333333)"
   id="g453"><path
     d="M3,6H0V0l6,0v3C6,4.7,4.7,6,3,6z"
     id="path452" /></g>
<g
   transform="translate(290.375,842.375) scale(3.9483333333333)"
   id="g454"><path
     d="M6,6H0V3c0-1.7,1.3-3,3-3h0c1.7,0,3,1.3,3,3V6z"
     id="path453" /></g>
<g
   transform="translate(359.375,842.375) scale(3.9483333333333)"
   id="g455"><path
     d="M6,6H3C1.3,6,0,4.7,0,3V0l6,0V6z"
     id="path454" /></g>
<g
   transform="translate(382.375,842.375) scale(3.9483333333333)"
   id="g456"><rect
     width="6"
     height="6"
     id="rect455" /></g>
<g
   transform="translate(405.375,842.375) scale(3.9483333333333)"
   id="g457"><rect
     width="6"
     height="6"
     id="rect456" /></g>
<g
   transform="translate(428.375,842.375) scale(3.9483333333333)"
   id="g458"><path
     d="M3,6H0V0l3,0c1.7,0,3,1.3,3,3v0C6,4.7,4.7,6,3,6z"
     id="path457" /></g>
<g
   transform="translate(474.375,842.375) scale(3.9483333333333)"
   id="g459"><path
     d="M6,6H0V3c0-1.7,1.3-3,3-3l3,0V6z"
     id="path458" /></g>
<g
   transform="translate(497.375,842.375) scale(3.9483333333333)"
   id="g460"><path
     d="M3,6H0V0l6,0v3C6,4.7,4.7,6,3,6z"
     id="path459" /></g>
<g
   transform="translate(566.375,842.375) scale(3.9483333333333)"
   id="g461"><path
     d="M6,6H3C1.3,6,0,4.7,0,3v0c0-1.7,1.3-3,3-3h3C6,0,6,6,6,6z"
     id="path460" /></g>
<g
   transform="translate(589.375,842.375) scale(3.9483333333333)"
   id="g462"><rect
     width="6"
     height="6"
     id="rect461" /></g>
<g
   transform="translate(612.375,842.375) scale(3.9483333333333)"
   id="g463"><rect
     width="6"
     height="6"
     id="rect462" /></g>
<g
   transform="translate(658.375,842.375) scale(3.9483333333333)"
   id="g464"><path
     d="M6,6H3C1.3,6,0,4.7,0,3v0c0-1.7,1.3-3,3-3h3C6,0,6,6,6,6z"
     id="path463" /></g>
<g
   transform="translate(681.375,842.375) scale(3.9483333333333)"
   id="g465"><path
     d="M6,6H0V0l3,0c1.7,0,3,1.3,3,3V6z"
     id="path464" /></g>
<g
   transform="translate(727.375,842.375) scale(3.9483333333333)"
   id="g466"><path
     d="M6,6H3C1.3,6,0,4.7,0,3V0l6,0V6z"
     id="path465" /></g>
<g
   transform="translate(750.375,842.375) scale(3.9483333333333)"
   id="g467"><rect
     width="6"
     height="6"
     id="rect466" /></g>
<g
   transform="translate(773.375,842.375) scale(3.9483333333333)"
   id="g468"><rect
     width="6"
     height="6"
     id="rect467" /></g>
<g
   transform="translate(796.375,842.375) scale(3.9483333333333)"
   id="g469"><rect
     width="6"
     height="6"
     id="rect468" /></g>
<g
   transform="translate(819.375,842.375) scale(3.9483333333333)"
   id="g470"><rect
     width="6"
     height="6"
     id="rect469" /></g>
<g
   transform="translate(842.375,842.375) scale(3.9483333333333)"
   id="g471"><rect
     width="6"
     height="6"
     id="rect470" /></g>
<g
   transform="translate(888.375,842.375) scale(3.9483333333333)"
   id="g472"><circle
     cx="3"
     cy="3"
     r="3"
     id="circle471" /></g>
<g
   transform="translate(290.375,865.375) scale(3.9483333333333)"
   id="g473"><rect
     width="6"
     height="6"
     id="rect472" /></g>
<g
   transform="translate(313.375,865.375) scale(3.9483333333333)"
   id="g474"><path
     d="M3,6H0V0l3,0c1.7,0,3,1.3,3,3v0C6,4.7,4.7,6,3,6z"
     id="path473" /></g>
<g
   transform="translate(382.375,865.375) scale(3.9483333333333)"
   id="g475"><rect
     width="6"
     height="6"
     id="rect474" /></g>
<g
   transform="translate(474.375,865.375) scale(3.9483333333333)"
   id="g476"><path
     d="M3,6L3,6C1.3,6,0,4.7,0,3V0h6v3C6,4.7,4.7,6,3,6z"
     id="path475" /></g>
<g
   transform="translate(520.375,865.375) scale(3.9483333333333)"
   id="g477"><path
     d="M6,6H0V3c0-1.7,1.3-3,3-3h0c1.7,0,3,1.3,3,3V6z"
     id="path476" /></g>
<g
   transform="translate(589.375,865.375) scale(3.9483333333333)"
   id="g478"><path
     d="M6,6H3C1.3,6,0,4.7,0,3V0l6,0V6z"
     id="path477" /></g>
<g
   transform="translate(612.375,865.375) scale(3.9483333333333)"
   id="g479"><path
     d="M3,6H0V0l6,0v3C6,4.7,4.7,6,3,6z"
     id="path478" /></g>
<g
   transform="translate(681.375,865.375) scale(3.9483333333333)"
   id="g480"><rect
     width="6"
     height="6"
     id="rect479" /></g>
<g
   transform="translate(796.375,865.375) scale(3.9483333333333)"
   id="g481"><path
     d="M3,6L3,6C1.3,6,0,4.7,0,3V0h6v3C6,4.7,4.7,6,3,6z"
     id="path480" /></g>
<g
   transform="translate(842.375,865.375) scale(3.9483333333333)"
   id="g482"><path
     d="M3,6L3,6C1.3,6,0,4.7,0,3V0h6v3C6,4.7,4.7,6,3,6z"
     id="path481" /></g>
<g
   transform="translate(290.375,888.375) scale(3.9483333333333)"
   id="g483"><path
     d="M3,6L3,6C1.3,6,0,4.7,0,3V0h6v3C6,4.7,4.7,6,3,6z"
     id="path482" /></g>
<g
   transform="translate(336.375,888.375) scale(3.9483333333333)"
   id="g484"><path
     d="M6,6H0V3c0-1.7,1.3-3,3-3h0c1.7,0,3,1.3,3,3V6z"
     id="path483" /></g>
<g
   transform="translate(382.375,888.375) scale(3.9483333333333)"
   id="g485"><path
     d="M3,6L3,6C1.3,6,0,4.7,0,3V0h6v3C6,4.7,4.7,6,3,6z"
     id="path484" /></g>
<g
   transform="translate(451.375,888.375) scale(3.9483333333333)"
   id="g486"><path
     d="M6,6H0V3c0-1.7,1.3-3,3-3h0c1.7,0,3,1.3,3,3V6z"
     id="path485" /></g>
<g
   transform="translate(497.375,888.375) scale(3.9483333333333)"
   id="g487"><path
     d="M6,6H0V3c0-1.7,1.3-3,3-3l3,0V6z"
     id="path486" /></g>
<g
   transform="translate(520.375,888.375) scale(3.9483333333333)"
   id="g488"><path
     d="M3,6H0V0l6,0v3C6,4.7,4.7,6,3,6z"
     id="path487" /></g>
<g
   transform="translate(566.375,888.375) scale(3.9483333333333)"
   id="g489"><circle
     cx="3"
     cy="3"
     r="3"
     id="circle488" /></g>
<g
   transform="translate(635.375,888.375) scale(3.9483333333333)"
   id="g490"><path
     d="M6,6H0V3c0-1.7,1.3-3,3-3l3,0V6z"
     id="path489" /></g>
<g
   transform="translate(658.375,888.375) scale(3.9483333333333)"
   id="g491"><rect
     width="6"
     height="6"
     id="rect490" /></g>
<g
   transform="translate(681.375,888.375) scale(3.9483333333333)"
   id="g492"><rect
     width="6"
     height="6"
     id="rect491" /></g>
<g
   transform="translate(704.375,888.375) scale(3.9483333333333)"
   id="g493"><path
     d="M6,6H0V0l3,0c1.7,0,3,1.3,3,3V6z"
     id="path492" /></g>
<g
   transform="translate(773.375,888.375) scale(3.9483333333333)"
   id="g494"><circle
     cx="3"
     cy="3"
     r="3"
     id="circle493" /></g>
<g
   transform="translate(819.375,888.375) scale(3.9483333333333)"
   id="g495"><circle
     cx="3"
     cy="3"
     r="3"
     id="circle494" /></g>
<g
   transform="translate(934.375,888.375) scale(3.9483333333333)"
   id="g496"><path
     d="M6,6H0V3c0-1.7,1.3-3,3-3h0c1.7,0,3,1.3,3,3V6z"
     id="path495" /></g>
<g
   transform="translate(313.375,911.375) scale(3.9483333333333)"
   id="g497"><path
     d="M6,6H0V3c0-1.7,1.3-3,3-3l3,0V6z"
     id="path496" /></g>
<g
   transform="translate(336.375,911.375) scale(3.9483333333333)"
   id="g498"><rect
     width="6"
     height="6"
     id="rect497" /></g>
<g
   transform="translate(359.375,911.375) scale(3.9483333333333)"
   id="g499"><path
     d="M3,6H0V0l3,0c1.7,0,3,1.3,3,3v0C6,4.7,4.7,6,3,6z"
     id="path498" /></g>
<g
   transform="translate(405.375,911.375) scale(3.9483333333333)"
   id="g500"><circle
     cx="3"
     cy="3"
     r="3"
     id="circle499" /></g>
<g
   transform="translate(451.375,911.375) scale(3.9483333333333)"
   id="g501"><rect
     width="6"
     height="6"
     id="rect500" /></g>
<g
   transform="translate(474.375,911.375) scale(3.9483333333333)"
   id="g502"><rect
     width="6"
     height="6"
     id="rect501" /></g>
<g
   transform="translate(497.375,911.375) scale(3.9483333333333)"
   id="g503"><rect
     width="6"
     height="6"
     id="rect502" /></g>
<g
   transform="translate(635.375,911.375) scale(3.9483333333333)"
   id="g504"><rect
     width="6"
     height="6"
     id="rect503" /></g>
<g
   transform="translate(704.375,911.375) scale(3.9483333333333)"
   id="g505"><rect
     width="6"
     height="6"
     id="rect504" /></g>
<g
   transform="translate(750.375,911.375) scale(3.9483333333333)"
   id="g506"><circle
     cx="3"
     cy="3"
     r="3"
     id="circle505" /></g>
<g
   transform="translate(796.375,911.375) scale(3.9483333333333)"
   id="g507"><circle
     cx="3"
     cy="3"
     r="3"
     id="circle506" /></g>
<g
   transform="translate(842.375,911.375) scale(3.9483333333333)"
   id="g508"><path
     d="M6,6H0V3c0-1.7,1.3-3,3-3h0c1.7,0,3,1.3,3,3V6z"
     id="path507" /></g>
<g
   transform="translate(934.375,911.375) scale(3.9483333333333)"
   id="g509"><rect
     width="6"
     height="6"
     id="rect508" /></g>
<g
   transform="translate(313.375,934.375) scale(3.9483333333333)"
   id="g510"><path
     d="M3,6L3,6C1.3,6,0,4.7,0,3V0h6v3C6,4.7,4.7,6,3,6z"
     id="path509" /></g>
<g
   transform="translate(451.375,934.375) scale(3.9483333333333)"
   id="g511"><path
     d="M3,6L3,6C1.3,6,0,4.7,0,3V0h6v3C6,4.7,4.7,6,3,6z"
     id="path510" /></g>
<g
   transform="translate(497.375,934.375) scale(3.9483333333333)"
   id="g512"><path
     d="M6,6H3C1.3,6,0,4.7,0,3V0l6,0V6z"
     id="path511" /></g>
<g
   transform="translate(520.375,934.375) scale(3.9483333333333)"
   id="g513"><rect
     width="6"
     height="6"
     id="rect512" /></g>
<g
   transform="translate(543.375,934.375) scale(3.9483333333333)"
   id="g514"><path
     d="M3,6H0V0l3,0c1.7,0,3,1.3,3,3v0C6,4.7,4.7,6,3,6z"
     id="path513" /></g>
<g
   transform="translate(589.375,934.375) scale(3.9483333333333)"
   id="g515"><path
     d="M6,6H3C1.3,6,0,4.7,0,3v0c0-1.7,1.3-3,3-3h3C6,0,6,6,6,6z"
     id="path514" /></g>
<g
   transform="translate(612.375,934.375) scale(3.9483333333333)"
   id="g516"><rect
     width="6"
     height="6"
     id="rect515" /></g>
<g
   transform="translate(635.375,934.375) scale(3.9483333333333)"
   id="g517"><rect
     width="6"
     height="6"
     id="rect516" /></g>
<g
   transform="translate(658.375,934.375) scale(3.9483333333333)"
   id="g518"><rect
     width="6"
     height="6"
     id="rect517" /></g>
<g
   transform="translate(681.375,934.375) scale(3.9483333333333)"
   id="g519"><rect
     width="6"
     height="6"
     id="rect518" /></g>
<g
   transform="translate(704.375,934.375) scale(3.9483333333333)"
   id="g520"><path
     d="M3,6H0V0l6,0v3C6,4.7,4.7,6,3,6z"
     id="path519" /></g>
<g
   transform="translate(819.375,934.375) scale(3.9483333333333)"
   id="g521"><path
     d="M6,6H3C1.3,6,0,4.7,0,3v0c0-1.7,1.3-3,3-3h3C6,0,6,6,6,6z"
     id="path520" /></g>
<g
   transform="translate(842.375,934.375) scale(3.9483333333333)"
   id="g522"><rect
     width="6"
     height="6"
     id="rect521" /></g>
<g
   transform="translate(865.375,934.375) scale(3.9483333333333)"
   id="g523"><rect
     width="6"
     height="6"
     id="rect522" /></g>
<g
   transform="translate(888.375,934.375) scale(3.9483333333333)"
   id="g524"><rect
     width="6"
     height="6"
     id="rect523" /></g>
<g
   transform="translate(911.375,934.375) scale(3.9483333333333)"
   id="g525"><rect
     width="6"
     height="6"
     id="rect524" /></g>
<g
   transform="translate(934.375,934.375) scale(3.9483333333333)"
   id="g526"><path
     d="M3,6H0V0l6,0v3C6,4.7,4.7,6,3,6z"
     id="path525" /></g>
<g
   transform="translate(106.375,106.375)"
   id="g528"><g
     transform="scale(11.5)"
     id="g527"><path
       d="M14,14V4.4C14,2,12,0,9.6,0H4.4C2,0,0,2,0,4.4v5.1C0,12,2,14,4.4,14H14z M4.8,2h4.4C10.7,2,12,3.3,12,4.8V12H4.8 C3.3,12,2,10.7,2,9.2V4.8C2,3.3,3.3,2,4.8,2z"
       id="path526" /></g></g>
<g
   transform="translate(796.375,106.375)"
   id="g530"><g
     transform="scale(11.5) rotate(90 7 7)"
     id="g529"><path
       d="M14,14V4.4C14,2,12,0,9.6,0H4.4C2,0,0,2,0,4.4v5.1C0,12,2,14,4.4,14H14z M4.8,2h4.4C10.7,2,12,3.3,12,4.8V12H4.8 C3.3,12,2,10.7,2,9.2V4.8C2,3.3,3.3,2,4.8,2z"
       id="path528" /></g></g>
<g
   transform="translate(106.375,796.375)"
   id="g532"><g
     transform="scale(11.5) rotate(-90 7 7)"
     id="g531"><path
       d="M14,14V4.4C14,2,12,0,9.6,0H4.4C2,0,0,2,0,4.4v5.1C0,12,2,14,4.4,14H14z M4.8,2h4.4C10.7,2,12,3.3,12,4.8V12H4.8 C3.3,12,2,10.7,2,9.2V4.8C2,3.3,3.3,2,4.8,2z"
       id="path530" /></g></g>
<g
   transform="translate(152.375,152.375)"
   id="g534"><g
     transform="scale(11.5)"
     id="g533"><path
       d="M6,1.7v2.7C6,5.2,5.2,6,4.3,6H1.7C0.7,6,0,5.3,0,4.3V1.7C0,0.8,0.8,0,1.7,0h2.7C5.3,0,6,0.7,6,1.7z"
       id="path532" /></g></g>
<g
   transform="translate(842.375,152.375)"
   id="g536"><g
     transform="scale(11.5)"
     id="g535"><path
       d="M6,1.7v2.7C6,5.2,5.2,6,4.3,6H1.7C0.7,6,0,5.3,0,4.3V1.7C0,0.8,0.8,0,1.7,0h2.7C5.3,0,6,0.7,6,1.7z"
       id="path534" /></g></g>
<g
   transform="translate(152.375,842.375)"
   id="g538"><g
     transform="scale(11.5)"
     id="g537"><path
       d="M6,1.7v2.7C6,5.2,5.2,6,4.3,6H1.7C0.7,6,0,5.3,0,4.3V1.7C0,0.8,0.8,0,1.7,0h2.7C5.3,0,6,0.7,6,1.7z"
       id="path536" /></g></g>
</g><g
     id="g540"
     transform="matrix(10.541661,0,0,10.541661,405.37501,405.375)"><rect
       width="24"
       height="24"
       rx="4.8000002"
       ry="4.8000002"
       fill="#2f586e"
       id="rect1-7"
       x="0"
       y="0" /><path
       fill="#204251"
       d="M 20.646,3.354 16.02,7.98 13.237,20.041 8.597,15.402 3.354,20.646 6.707,24 H 19.199 A 4.79,4.79 0 0 0 24,19.2 V 6.706 l -3,-3 z"
       id="path1-9" /><path
       fill="none"
       stroke="#ffffff"
       stroke-miterlimit="10"
       stroke-width="0.967"
       d="m 16.02,7.98 -12.061,2.785 9.278,9.277 z m 4.638,4.639 -9.277,-9.277"
       id="path2-3" /><path
       stroke="#ffffff"
       d="M 3.354,20.646 8.337,15.663 M 16.01,7.99 20.646,3.354"
       id="path3-8" /></g></svg>
