<svg
	id="canvas"
	class="mainCanvas"
	version="1.1"
	xmlns="http://www.w3.org/2000/svg"
	xmlns:xlink="http://www.w3.org/1999/xlink"
	style="font-size: 10pt"
>
	<defs id="backgroundDefs">
		<pattern id="smallGridPattern" width=".25cm" height=".25cm" patternUnits="userSpaceOnUse">
			<path d="M 9.44882 0 L 0 0 0 9.44882" fill="none" stroke="var(--bs-secondary-text-emphasis)" stroke-width="0.1pt" />
			</pattern>
		<pattern id="gridPattern" width="1cm" height="1cm" patternUnits="userSpaceOnUse">
			<rect width="1cm" height="1cm" fill="url(#smallGridPattern)" />
			<path d="M 37.79528 0 L 0 0 0 37.79528" fill="none" stroke="var(--bs-secondary-text-emphasis)" stroke-width="0.2pt" />
		</pattern>
		<symbol id="snapCursor" viewBox="0 0 14 14">
			<circle cx="7" cy="7" fill="none" stroke="var(--bs-emphasis-color)" stroke-width="1.5" r="6" />
		</symbol>
		<marker id="latex" refX="0"	refY="5" markerWidth="10" markerHeight="10"	orient="auto-start-reverse"	markerUnits="strokeWidth">
			<path stroke="none" fill="context-stroke" d="M 0 0 L 10 5 L 0 10 z" />
		</marker>
		<marker	id="latexR" refX="10" refY="5" markerWidth="10" markerHeight="10" orient="auto-start-reverse" markerUnits="strokeWidth">
			<path stroke="none" fill="context-stroke" d="M 10 0 L 10 10 L 0 5 z" />
		</marker>
		<marker id="to" refX="8" refY="6" markerWidth="12" markerHeight="12" orient="auto-start-reverse" markerUnits="strokeWidth">
			<path stroke="context-stroke" fill="none" d="M 3.5 1 C 4 3.5 8 6 8.5 6" stroke-linecap="round"/>
			<path stroke="context-stroke" fill="none" d="M 8.5 6 C 8 6 4 8.5 3.5 11" stroke-linecap="round"/>
		</marker>
		<marker	id="toR" refX="4" refY="6" markerWidth="12" markerHeight="12" orient="auto-start-reverse" markerUnits="strokeWidth">
			<path stroke="context-stroke" fill="none" d="M 8.5 1 C 8 3.5 4 6 3.5 6" stroke-linecap="round"/>
			<path stroke="context-stroke" fill="none" d="M 3.5 6 C 4 6 8 8.5 8.5 11" stroke-linecap="round"/>
		</marker>
		<marker	id="stealth" refX="3" refY="5" markerWidth="10" markerHeight="10" orient="auto-start-reverse" markerUnits="strokeWidth">
			<path stroke="none" fill="context-stroke" d="M 0 0 L 10 5 L 0 10 L 3 5 z" />
		</marker>
		<marker	id="stealthR" refX="7" refY="5" markerWidth="10" markerHeight="10" orient="auto-start-reverse" markerUnits="strokeWidth">
			<path stroke="none" fill="context-stroke" d="M 10 0 L 7 5 L 10 10 L 0 5 z" />
		</marker>
		<marker	id="line" refX="5" refY="5" markerWidth="10" markerHeight="10" orient="auto-start-reverse" markerUnits="strokeWidth">
			<path stroke="context-stroke" fill="none" d="M 5 0 L 5 10" />
		</marker>
	</defs>
	<rect id="grid" x="0" y="0" width="100%" height="100%" fill="url(#gridPattern)" style="translate: -.25px -.25px; " />
	<line id="yAxis" x1="0" x2="0" y1="0" y2="100%" stroke="var(--bs-primary-text-emphasis)" stroke-width="0.3pt" />
	<line id="xAxis" x1="0" x2="100%" y1="0" y2="0" stroke="var(--bs-primary-text-emphasis)" stroke-width="0.3pt" />
</svg>
